<svg width="42" height="42" viewBox="0 0 42 42" fill="none" xmlns="http://www.w3.org/2000/svg">
<g clip-path="url(#clip0)">
<path d="M15.5486 14.0959H6.24939C5.79633 14.0959 5.42908 13.7286 5.42908 13.2755C5.42908 12.8225 5.79633 12.4552 6.24939 12.4552H15.5485C16.0016 12.4552 16.3688 12.8225 16.3688 13.2755C16.3689 13.7285 16.0016 14.0959 15.5486 14.0959Z" fill="#4E74FF"/>
<path d="M15.5486 17.5828H6.24939C5.79633 17.5828 5.42908 17.2155 5.42908 16.7625C5.42908 16.3094 5.79633 15.9421 6.24939 15.9421H15.5485C16.0016 15.9421 16.3688 16.3094 16.3688 16.7625C16.3689 17.2155 16.0016 17.5828 15.5486 17.5828Z" fill="#4E74FF"/>
<path d="M35.4925 23.0328H26.1934C25.7403 23.0328 25.373 22.6656 25.373 22.2125C25.373 21.7594 25.7403 21.3922 26.1934 21.3922H35.4926C35.9456 21.3922 36.3129 21.7594 36.3129 22.2125C36.3128 22.6656 35.9456 23.0328 35.4925 23.0328Z" fill="#4E74FF"/>
<path d="M35.4925 26.5199H26.1934C25.7403 26.5199 25.373 26.1526 25.373 25.6996C25.373 25.2465 25.7403 24.8792 26.1934 24.8792H35.4926C35.9456 24.8792 36.3129 25.2465 36.3129 25.6996C36.3128 26.1526 35.9456 26.5199 35.4925 26.5199Z" fill="#4E74FF"/>
<path d="M20.2272 36.3398C19.8849 36.3398 19.5698 36.1188 19.4549 35.7958C19.3416 35.4772 19.4385 35.1133 19.6965 34.8943C19.9657 34.6658 20.36 34.6388 20.6597 34.8234C20.947 35.0003 21.0978 35.3498 21.0312 35.6803C20.9548 36.059 20.6138 36.3398 20.2272 36.3398Z" fill="#4E74FF"/>
<path d="M38.1154 17.0118H33.419V4.33896C33.4189 1.94644 31.4725 0 29.08 0H12.1641C9.77161 0 7.82517 1.94644 7.82517 4.33896V8.32847H3.88463C2.79698 8.32847 1.91211 9.21416 1.91211 10.3028V20.3042C1.91211 21.3928 2.79698 22.2785 3.88463 22.2785H7.82525V37.6611C7.82525 40.0536 9.77169 42.0001 12.1642 42.0001H29.08C31.4725 42.0001 33.419 40.0536 33.419 37.6611V30.9619H38.1154C39.203 30.9619 40.0879 30.0762 40.0879 28.9875V18.9861C40.0879 17.8975 39.203 17.0118 38.1154 17.0118ZM9.46579 4.33896C9.46579 2.85108 10.6762 1.64062 12.1641 1.64062H29.08C30.5679 1.64062 31.7784 2.85108 31.7784 4.33896V4.83968H9.46588V4.33896H9.46579ZM3.55265 20.3041V10.3027C3.55265 10.1187 3.70154 9.96901 3.88455 9.96901H18.2603C18.4433 9.96901 18.5922 10.1187 18.5922 10.3027V20.3041C18.5922 20.4881 18.4433 20.6378 18.2603 20.6378H16.2884C15.8877 20.6378 15.5456 20.9273 15.4794 21.3225L15.3187 22.2813L13.3095 20.7982C13.1684 20.6941 12.9977 20.6378 12.8223 20.6378H3.88463C3.70154 20.6378 3.55265 20.4881 3.55265 20.3041ZM31.7783 34.6994H23.9203C23.4672 34.6994 23.1 35.0666 23.1 35.5197C23.1 35.9728 23.4672 36.34 23.9203 36.34H31.7783V37.661C31.7783 39.1489 30.5678 40.3594 29.08 40.3594H12.1641C10.6762 40.3594 9.46579 39.1489 9.46579 37.661V36.34H16.5036C16.9566 36.34 17.3239 35.9728 17.3239 35.5197C17.3239 35.0666 16.9566 34.6994 16.5036 34.6994H9.46579V22.2785H12.5524L15.4196 24.395C15.5629 24.5008 15.7341 24.5554 15.9069 24.5554C16.0107 24.5554 16.1152 24.5357 16.2144 24.4955C16.4788 24.3885 16.6687 24.152 16.7158 23.8707L16.9826 22.2785H18.2603C19.3479 22.2785 20.2328 21.3928 20.2328 20.3041V10.3027C20.2328 9.21408 19.3479 8.32839 18.2603 8.32839H9.46579V6.48022H31.7783V17.0118H23.7396C22.652 17.0118 21.7671 17.8975 21.7671 18.9861V28.9875C21.7671 30.0763 22.652 30.9619 23.7396 30.9619H25.0173L25.2841 32.5541C25.3313 32.8354 25.5211 33.072 25.7855 33.1789C25.8848 33.2191 25.9892 33.2388 26.093 33.2388C26.2658 33.2388 26.437 33.1843 26.5803 33.0784L29.4475 30.9619H31.7783V34.6994ZM38.4473 28.9875C38.4473 29.1715 38.2984 29.3213 38.1154 29.3213H29.1776C29.0022 29.3213 28.8315 29.3774 28.6904 29.4816L26.6812 30.9648L26.5205 30.006C26.4543 29.6108 26.1121 29.3213 25.7115 29.3213H23.7396C23.5566 29.3213 23.4077 29.1716 23.4077 28.9876V18.9861C23.4077 18.8021 23.5566 18.6524 23.7396 18.6524H38.1154C38.2985 18.6524 38.4473 18.8021 38.4473 18.9861V28.9875Z" fill="#4E74FF"/>
</g>
<defs>
<clipPath id="clip0">
<rect width="42" height="42" fill="white"/>
</clipPath>
</defs>
</svg>
