<svg width="42" height="42" viewBox="0 0 42 42" fill="none" xmlns="http://www.w3.org/2000/svg">
<path d="M11.4844 26.7422C11.4844 24.4806 9.64441 22.6406 7.38281 22.6406C5.12121 22.6406 3.28125 24.4806 3.28125 26.7422C3.28125 29.0038 5.12121 30.8438 7.38281 30.8438C9.64441 30.8438 11.4844 29.0038 11.4844 26.7422ZM7.38281 29.2031C6.02585 29.2031 4.92188 28.0991 4.92188 26.7422C4.92188 25.3852 6.02585 24.2812 7.38281 24.2812C8.73977 24.2812 9.84375 25.3852 9.84375 26.7422C9.84375 28.0991 8.73977 29.2031 7.38281 29.2031Z" fill="#4E74FF"/>
<path d="M0.820312 37.4062H17.3086C17.7617 37.4062 18.1289 37.0389 18.1289 36.5859C18.1289 36.133 17.7617 35.7656 17.3086 35.7656H14.848C15.2291 33.8958 16.8865 32.4844 18.8672 32.4844H23.1328C25.1135 32.4844 26.7708 33.8958 27.152 35.7656H24.6914C24.2383 35.7656 23.8711 36.133 23.8711 36.5859C23.8711 37.0389 24.2383 37.4062 24.6914 37.4062H41.1797C41.6327 37.4062 42 37.0389 42 36.5859C42 33.4197 39.4241 30.8438 36.2578 30.8438H32.9766C30.89 30.8438 29.0602 31.9627 28.0547 33.6318C27.0491 31.9627 25.2194 30.8438 23.1328 30.8438H18.8672C16.7806 30.8438 14.9509 31.9627 13.9453 33.6318C12.9398 31.9627 11.11 30.8438 9.02344 30.8438H5.74219C2.57595 30.8438 0 33.4197 0 36.5859C0 37.0389 0.367254 37.4062 0.820312 37.4062ZM32.9766 32.4844H36.2578C38.2385 32.4844 39.8958 33.8958 40.277 35.7656H28.9574C29.3386 33.8958 30.9958 32.4844 32.9766 32.4844ZM5.74219 32.4844H9.02344C11.0042 32.4844 12.6614 33.8958 13.0426 35.7656H1.72298C2.10418 33.8958 3.76146 32.4844 5.74219 32.4844Z" fill="#4E74FF"/>
<path d="M25.1016 26.7422C25.1016 24.4806 23.2616 22.6406 21 22.6406C18.7384 22.6406 16.8984 24.4806 16.8984 26.7422C16.8984 29.0038 18.7384 30.8438 21 30.8438C23.2616 30.8438 25.1016 29.0038 25.1016 26.7422ZM21 29.2031C19.643 29.2031 18.5391 28.0991 18.5391 26.7422C18.5391 25.3852 19.643 24.2812 21 24.2812C22.357 24.2812 23.4609 25.3852 23.4609 26.7422C23.4609 28.0991 22.357 29.2031 21 29.2031Z" fill="#4E74FF"/>
<path d="M38.7188 26.7422C38.7188 24.4806 36.8788 22.6406 34.6172 22.6406C32.3556 22.6406 30.5156 24.4806 30.5156 26.7422C30.5156 29.0038 32.3556 30.8438 34.6172 30.8438C36.8788 30.8438 38.7188 29.0038 38.7188 26.7422ZM34.6172 29.2031C33.2602 29.2031 32.1562 28.0991 32.1562 26.7422C32.1562 25.3852 33.2602 24.2812 34.6172 24.2812C35.9741 24.2812 37.0781 25.3852 37.0781 26.7422C37.0781 28.0991 35.9741 29.2031 34.6172 29.2031Z" fill="#4E74FF"/>
<path d="M13.5754 13.5253C13.4789 13.2284 13.2223 13.0119 12.9132 12.9669L9.37294 12.4524L7.78949 9.24453C7.65127 8.96456 7.36613 8.78729 7.05391 8.78729C6.7417 8.78729 6.45656 8.96456 6.31834 9.24453L4.73481 12.4524L1.1945 12.9669C0.885493 13.0119 0.628817 13.2284 0.532348 13.5253C0.43588 13.8222 0.516352 14.1483 0.739887 14.3662L3.3014 16.8633L2.69666 20.3889C2.64383 20.6967 2.77032 21.0077 3.02298 21.1912C3.27556 21.3746 3.61041 21.3988 3.88685 21.2537L7.05367 19.589C7.63158 19.8929 10.2198 21.2536 10.2198 21.2536C10.4989 21.4003 10.8337 21.3729 11.0838 21.1912C11.3364 21.0077 11.463 20.6967 11.4102 20.3889L10.8055 16.8634L13.3677 14.3662C13.5914 14.1484 13.6719 13.8223 13.5754 13.5253ZM9.35153 15.9895C9.15818 16.1779 9.06991 16.4494 9.11561 16.7156L9.51223 19.028C9.51223 19.028 8.17815 18.3267 7.43577 17.9362C7.19665 17.8105 6.9111 17.8103 6.67214 17.936L4.59462 19.0281L4.99124 16.7156C5.03693 16.4495 4.94866 16.178 4.7554 15.9896L3.07515 14.3515L5.39754 14.014C5.66472 13.9751 5.89563 13.8073 6.01507 13.5652L7.05391 11.4609L8.09268 13.5652C8.2122 13.8073 8.44311 13.9751 8.71029 14.014L11.0323 14.3515L9.35153 15.9895Z" fill="#4E74FF"/>
<path d="M41.4676 13.5253C41.3712 13.2284 41.1144 13.0119 40.8055 12.9669L37.2652 12.4524L35.6817 9.24453C35.5435 8.96456 35.2584 8.78729 34.9462 8.78729C34.634 8.78729 34.3488 8.96456 34.2106 9.24453L32.6271 12.4524L29.0868 12.9669C28.7778 13.0119 28.5211 13.2284 28.4247 13.5253C28.3282 13.8223 28.4087 14.1484 28.6323 14.3662L31.1945 16.8634L30.5898 20.3889C30.537 20.6967 30.6636 21.0077 30.9161 21.1912C31.1689 21.3748 31.5037 21.3988 31.7801 21.2537L34.9462 19.5889L38.113 21.2536C38.3926 21.4006 38.7273 21.3727 38.9769 21.1912C39.2296 21.0077 39.3562 20.6967 39.3033 20.3889L38.6986 16.8633L41.2601 14.3662C41.4836 14.1483 41.5641 13.8222 41.4676 13.5253ZM37.2445 15.9896C37.0513 16.178 36.963 16.4494 37.0087 16.7156L37.4053 19.0281L35.3279 17.9361C35.2083 17.8732 35.0773 17.8418 34.9461 17.8418C34.815 17.8418 34.6838 17.8732 34.5643 17.936L32.4878 19.0279L32.8843 16.7156C32.93 16.4495 32.8417 16.1779 32.6484 15.9895L30.9677 14.3515L33.2898 14.014C33.557 13.9751 33.7879 13.8073 33.9074 13.5652L34.9462 11.4609L35.985 13.5652C36.1045 13.8073 36.3354 13.9751 36.6025 14.014L38.9249 14.3515L37.2445 15.9896Z" fill="#4E74FF"/>
<path d="M29.1753 10.5336C29.0788 10.2366 28.822 10.0202 28.5131 9.97525L23.8301 9.29496L21.7356 5.05107C21.5975 4.77102 21.3123 4.59375 21 4.59375C20.6877 4.59375 20.4026 4.77102 20.2645 5.05099L18.17 9.29496L13.487 9.97533C13.178 10.0203 12.9213 10.2367 12.8249 10.5336C12.7283 10.8306 12.8088 11.1566 13.0323 11.3745L16.4207 14.678L15.6208 19.3422C15.568 19.65 15.6945 19.961 15.9472 20.1445C16.1998 20.3279 16.5346 20.3522 16.811 20.207L21 18.0049L25.1891 20.2069C25.466 20.3525 25.8009 20.3276 26.053 20.1444C26.3056 19.9609 26.4321 19.6499 26.3793 19.3421L25.5794 14.6779L28.9678 11.3745C29.1913 11.1565 29.2718 10.8305 29.1753 10.5336ZM24.1253 13.8042C23.9321 13.9926 23.8438 14.2641 23.8895 14.5303L24.4814 17.9814L21.3816 16.352C21.2621 16.2892 21.131 16.2579 21 16.2579C20.8689 16.2579 20.7378 16.2893 20.6183 16.352L17.5185 17.9814L18.1104 14.5303C18.1561 14.2642 18.0678 13.9926 17.8746 13.8042L15.3674 11.3599L18.8324 10.8565C19.0996 10.8176 19.3306 10.6498 19.4501 10.4077L21 7.26764L22.5499 10.4078C22.6694 10.6499 22.9003 10.8177 23.1675 10.8566L26.6325 11.36L24.1253 13.8042Z" fill="#4E74FF"/>
<path d="M21 37.4062C21.453 37.4062 21.8203 37.039 21.8203 36.5859C21.8203 36.1329 21.453 35.7656 21 35.7656C20.547 35.7656 20.1797 36.1329 20.1797 36.5859C20.1797 37.039 20.547 37.4062 21 37.4062Z" fill="#4E74FF"/>
</svg>
