<svg width="42" height="42" viewBox="0 0 42 42" fill="none" xmlns="http://www.w3.org/2000/svg">
<g clip-path="url(#clip0)">
<path d="M23.6954 10.9905C24.2843 10.9905 24.6748 10.3879 24.4534 9.85689C24.3066 9.49833 23.9199 9.28891 23.5356 9.36635C23.1411 9.44633 22.8751 9.78913 22.8751 10.1703C22.8751 10.609 23.23 10.9905 23.6954 10.9905Z" fill="#4E74FF"/>
<path d="M20.9999 23.6471C25.0996 23.6471 28.4348 20.3119 28.4348 16.2122C28.4348 14.5363 27.8609 12.8927 26.8189 11.584C26.5368 11.2296 26.0206 11.1708 25.6662 11.4532C25.3118 11.7354 25.2532 12.2514 25.5354 12.6059C26.3589 13.6401 26.7942 14.8872 26.7942 16.2122C26.7942 19.4072 24.1948 22.0065 20.9999 22.0065C17.8049 22.0065 15.2057 19.4072 15.2057 16.2122C15.2057 13.1326 17.612 10.5912 20.6838 10.4264C20.8535 10.4173 21.0083 10.3573 21.1343 10.2619C21.7761 9.77639 21.4027 8.74583 20.596 8.78816C16.6534 8.99964 13.5651 12.2606 13.5651 16.2122C13.565 20.3118 16.9003 23.6471 20.9999 23.6471Z" fill="#4E74FF"/>
<path d="M38.2861 5.71348H33.3571C33.1057 5.34409 32.9489 5.25262 31.9133 4.19803C30.8059 3.09077 29.0039 3.09077 27.8965 4.19803L26.6426 5.45196C25.9938 5.11096 25.3166 4.83008 24.6183 4.61245V2.84033C24.6184 1.27419 23.3443 0 21.7781 0H20.2217C18.6556 0 17.3814 1.27419 17.3814 2.84033V4.61253C16.6833 4.83016 16.006 5.11112 15.3572 5.45212L14.1032 4.19811C12.9958 3.09069 11.1939 3.09069 10.0864 4.19811C9.06808 5.23515 8.8945 5.34352 8.64275 5.71356H3.71382C1.7157 5.71356 0.0900879 7.33909 0.0900879 9.33729V28.5677C0.0900879 30.5601 1.70996 32.1914 3.71374 32.1914H17.9275L16.8519 36.0529H14.3866C12.9048 36.0529 11.6992 37.2584 11.6992 38.7403V40.3594H8.68803C8.23497 40.3594 7.86772 40.7267 7.86772 41.1797C7.86772 41.6327 8.23497 42 8.68803 42H33.3118C33.7648 42 34.1322 41.6327 34.1322 41.1797C34.1322 40.7267 33.7648 40.3594 33.3118 40.3594H30.3006V38.7402C30.3006 37.2584 29.0951 36.0528 27.6133 36.0528H25.1479L24.0723 32.1914H38.2861C40.2843 32.1914 41.9099 30.5658 41.9099 28.5676C41.9099 27.5475 41.9099 10.0139 41.9099 9.33721C41.9098 7.33909 40.2843 5.71348 38.2861 5.71348ZM38.2861 7.3541C39.3795 7.3541 40.2692 8.24373 40.2692 9.33721V24.9711H33.8368C33.8003 24.2808 33.5161 23.6111 33.014 23.1089L31.7601 21.855C32.1011 21.2061 32.382 20.529 32.5997 19.8307C34.3921 19.8262 34.4117 19.8416 34.6618 19.816C36.0923 19.6704 37.2122 18.4588 37.2122 16.9904V15.434C37.2122 13.8678 35.9381 12.5937 34.3719 12.5937H32.5997C32.382 11.8954 32.1011 11.2183 31.7601 10.5694L33.014 9.31555C33.5579 8.7716 33.8358 8.05932 33.8467 7.3541H38.2861ZM10.146 6.45881L11.2465 5.3582C11.7143 4.89046 12.4754 4.89046 12.9432 5.3582L14.6359 7.051C14.9012 7.31612 15.3128 7.36764 15.6354 7.17585C16.5007 6.66102 17.4321 6.27473 18.4038 6.02766C18.7675 5.93529 19.0221 5.6079 19.0221 5.23269V2.84033C19.0221 2.17883 19.5603 1.64062 20.2218 1.64062H21.7782C22.4397 1.64062 22.9779 2.17883 22.9779 2.84033V5.23269C22.9779 5.6079 23.2325 5.93529 23.5961 6.02766C24.5679 6.27465 25.4993 6.66102 26.3645 7.17585C26.6869 7.36772 27.0986 7.31629 27.3641 7.051L29.0567 5.3582C29.5245 4.89062 30.2856 4.89046 30.7535 5.3582C31.86 6.50147 32.0865 6.55823 32.1851 7.0898C32.2576 7.48765 32.1279 7.88132 31.854 8.15538L30.1613 9.8481C29.8959 10.1135 29.8445 10.5251 30.0364 10.8477C30.4869 11.6048 30.839 12.4125 31.0854 13.2536C31.1206 13.3738 31.1537 13.4946 31.1846 13.6161C31.277 13.9798 31.6044 14.2343 31.9796 14.2343H34.3719C35.0334 14.2343 35.5716 14.7725 35.5716 15.434V16.9904C35.5716 17.6519 35.0334 18.1901 34.3719 18.1901H31.9796C31.6044 18.1901 31.277 18.4447 31.1846 18.8084C30.9376 19.7801 30.5512 20.7115 30.0364 21.5768C30.0244 21.5969 30.0134 21.6174 30.0033 21.6382C29.8518 21.9502 29.9125 22.3274 30.1614 22.5763C31.666 24.1784 32.1164 24.2946 32.1967 24.9711H9.80333C9.83425 24.7105 9.95131 24.4635 10.1459 24.2689L11.8386 22.5762C12.104 22.3109 12.1554 21.8992 11.9635 21.5767C11.4485 20.7113 11.0623 19.7799 10.8154 18.8083C10.7231 18.4446 10.3956 18.19 10.0204 18.19H7.62802C6.96652 18.19 6.42832 17.6518 6.42832 16.9903V15.4339C6.42832 14.7724 6.96652 14.2342 7.62802 14.2342H10.0205C10.3957 14.2342 10.7231 13.9796 10.8155 13.616C11.0625 12.6441 11.4487 11.7128 11.9636 10.8476C12.1548 10.5264 12.1053 10.1146 11.8387 9.84802C10.1792 8.16859 10.1242 8.16974 9.98757 7.95908C9.68258 7.49003 9.74336 6.86126 10.146 6.45881ZM3.71382 7.3541H8.15319C8.16434 8.0681 8.44883 8.77849 8.98589 9.31555L10.2398 10.5694C9.89881 11.2183 9.61786 11.8956 9.40023 12.5937H7.62802C6.06188 12.5937 4.78769 13.8678 4.78769 15.434V16.9904C4.78769 18.5582 6.06344 19.8307 7.62802 19.8307H9.40023C9.61786 20.5288 9.89873 21.2061 10.2398 21.855L8.98589 23.1089C8.48369 23.6111 8.19962 24.2808 8.16311 24.9711H1.73071V9.33721C1.73071 8.24373 2.62034 7.3541 3.71382 7.3541ZM28.66 38.7402V40.3594H13.3399V38.7402C13.3399 38.1631 13.8094 37.6934 14.3866 37.6934H27.6133C28.1905 37.6934 28.66 38.1631 28.66 38.7402ZM23.4449 36.0528H18.5549L19.6305 32.1914H22.3692L23.4449 36.0528ZM40.2692 28.5676C40.2692 29.6611 39.3795 30.5507 38.2861 30.5507C37.0617 30.5507 4.8561 30.5507 3.71374 30.5507C2.61706 30.5507 1.73063 29.6581 1.73063 28.5676V26.6118H40.2691V28.5676H40.2692Z" fill="#4E74FF"/>
</g>
<defs>
<clipPath id="clip0">
<rect width="42" height="42" fill="white"/>
</clipPath>
</defs>
</svg>
