<svg width="598" height="450" viewBox="0 0 598 450" fill="none" xmlns="http://www.w3.org/2000/svg">
<g clip-path="url(#clip0)">
<path d="M360.855 9.03469C383.757 13.9763 406.612 20.9564 426.209 33.7429C479.486 68.6124 497.878 137.703 540.253 185.22C558.784 205.944 582.457 223.502 592.263 249.477C600.062 270.108 597.823 293.056 594.255 314.814C590.963 334.897 586.643 354.798 581.315 374.438C578.041 386.515 574.288 398.683 567.277 409.03C546.26 440.054 503.406 445.938 465.927 445.567C427.609 445.186 389.406 441.315 351.791 434.001C332.951 430.325 314.188 425.785 295.039 424.426C253.452 421.508 212.529 433.692 171.498 440.857C130.467 448.023 85.4667 449.567 49.9487 427.777C36.3454 419.29 24.86 407.808 16.3683 394.207C7.87654 380.607 2.60278 365.246 0.949151 349.298C-1.25915 326.057 4.42375 302.831 10.539 280.285C18.4148 251.191 27.073 222.318 36.5136 193.667C43.787 171.569 51.6165 149.455 63.5691 129.487C117.031 40.2443 263.273 -12.06 360.855 9.03469Z" fill="#F3F7FF"/>
<path d="M163.623 329.763C171.545 327.972 169.985 339.183 172.07 343.352C173.384 345.471 175.032 347.364 176.95 348.958C178.893 350.558 180.166 352.828 180.517 355.32C180.556 355.786 180.46 356.253 180.239 356.664C179.855 357.154 179.306 357.489 178.695 357.606C174.184 358.933 169.334 358.457 165.167 356.278C163.216 355.352 161.599 353.848 160.534 351.969C159.666 349.959 159.254 347.78 159.33 345.592C159.191 340.912 157.044 331.23 163.623 329.763Z" fill="#FDB9A9"/>
<path d="M170.617 352.85C170.617 352.85 193.117 353.807 183.589 360.864C174.061 367.922 159.838 359.15 158.448 357.529C157.058 355.907 158.201 353.158 158.201 353.158L170.617 352.85Z" fill="#4E74FF"/>
<path d="M159.437 355.953C161.444 358.393 172.007 361.667 176.686 361.343C181.365 361.019 185.566 358.826 185.103 355.799C184.639 352.772 176.377 345.73 174.833 345.761C173.289 345.792 172.038 349.359 168.919 350.116C167.522 350.344 166.09 350.213 164.758 349.734C163.427 349.256 162.238 348.447 161.305 347.383C161.019 346.995 160.608 346.717 160.142 346.596C159.675 346.475 159.181 346.518 158.742 346.719C158.104 348.2 157.834 349.813 157.955 351.421C158.076 353.03 158.584 354.585 159.437 355.953Z" fill="white"/>
<path d="M136.505 334.195C144.427 332.357 142.867 343.553 144.952 347.723C146.249 349.854 147.899 351.75 149.832 353.328C151.777 354.931 153.045 357.209 153.384 359.706C153.429 360.17 153.337 360.637 153.121 361.05C152.737 361.54 152.188 361.874 151.577 361.992C147.059 363.303 142.21 362.828 138.034 360.664C136.094 359.722 134.481 358.221 133.401 356.355C132.533 354.344 132.121 352.166 132.196 349.977C131.996 345.252 129.926 335.6 136.505 334.195Z" fill="#FDB9A9"/>
<path d="M143.5 357.158C143.5 357.158 166 358.116 156.472 365.188C146.944 372.261 132.721 363.474 131.393 361.853C130.065 360.231 131.13 357.482 131.13 357.482L143.5 357.158Z" fill="#4E74FF"/>
<path d="M132.32 360.231C134.327 362.687 144.89 365.961 149.569 365.621C154.248 365.281 158.449 363.119 157.985 360.092C157.522 357.066 149.26 350.024 147.716 350.039C146.172 350.055 144.921 353.653 141.802 354.394C140.401 354.615 138.967 354.476 137.635 353.989C136.303 353.503 135.117 352.686 134.188 351.614C133.9 351.229 133.488 350.954 133.022 350.836C132.555 350.718 132.062 350.764 131.625 350.966C130.979 352.45 130.705 354.07 130.826 355.685C130.947 357.299 131.46 358.86 132.32 360.231Z" fill="white"/>
<path d="M156.889 232.15L146.327 343.337L131.085 341.453C125.062 314.305 126.545 233.107 126.545 233.107L156.889 232.15Z" fill="url(#paint0_linear)"/>
<path d="M146.327 229.139L156.889 340.326L172.162 338.442C180.887 268.054 173.706 224.243 173.706 224.243L146.327 229.139Z" fill="#473F47"/>
<path d="M172.347 188.91C172.548 186.872 173.088 184.849 173.305 182.733C173.802 178.536 173.719 174.291 173.058 170.117C172.343 165.669 171.007 161.344 169.089 157.268C167.328 153.747 164.147 152.25 160.58 150.489C157.589 148.872 154.347 147.77 150.99 147.231C148.621 147.011 146.233 147.141 143.902 147.617C136.721 148.991 127.255 152.697 122.282 158.427C118.607 162.689 118.174 168.773 118.051 174.41C117.896 182.131 118.051 189.945 118.53 197.713C118.53 198.84 118.669 199.967 118.761 201.079C119.41 209.604 120.12 218.437 122.545 226.668C123.301 229.247 124.089 231.841 126.498 233.215C132.104 236.489 140.705 234.682 146.774 233.848C154.835 232.706 163.097 231.501 170.247 227.594C171.728 226.948 172.928 225.792 173.629 224.336C174.262 222.575 173.505 220.691 172.965 218.9C170.54 210.962 172.409 202.608 172.409 194.501C172.409 193.034 172.224 191.52 172.224 190.053C172.301 189.677 172.343 189.294 172.347 188.91Z" fill="white"/>
<path d="M157.924 154.705C158.029 157.437 157.926 160.173 157.615 162.89C157.615 165.391 157.846 167.878 157.723 170.364C157.493 174.582 156.033 178.641 153.522 182.039L173.289 177.885C173.697 177.851 174.075 177.656 174.339 177.344C174.481 176.982 174.481 176.579 174.339 176.217L172.625 168.495C172.028 164.627 170.691 160.909 168.687 157.547C166.466 154.616 163.589 152.246 160.286 150.628C159.545 150.242 157.028 148.42 156.318 149.64C156.101 150.165 157.816 153.794 157.924 154.705Z" fill="#E4EBF9"/>
<path d="M167.992 174.024C168.98 173.407 170.106 173.047 171.269 172.977C172.431 172.907 173.593 173.129 174.648 173.622C175.685 174.147 176.56 174.945 177.177 175.93C177.795 176.915 178.132 178.05 178.153 179.213C178.056 180.794 177.521 182.318 176.609 183.614C176.128 184.478 175.463 185.226 174.663 185.807C173.389 186.561 171.901 186.871 170.432 186.687C169.115 186.624 167.828 186.271 166.664 185.652C164.934 184.679 162.68 181.9 163.266 179.722C164.241 177.396 165.886 175.412 167.992 174.024Z" fill="#FDB9A9"/>
<path d="M140.396 225.788C141.589 222.748 142.197 219.51 142.187 216.244C141.982 213.152 141.512 210.083 140.782 207.071L135.64 182.548C134.698 178.054 132.659 156.296 125.803 158.844C123.881 159.66 122.164 160.89 120.773 162.446C119.383 164.002 118.353 165.846 117.757 167.847C116.586 171.855 116.1 176.031 116.321 180.201C116.444 191.011 118.591 202.068 119.981 212.8C120.506 216.862 121.139 231.949 126.513 233.277C127.563 233.555 128.598 234.08 129.601 234.266C131.408 234.59 136.829 236.752 139.191 236.042C139.385 235.996 139.568 235.91 139.727 235.791C139.886 235.671 140.019 235.52 140.118 235.347C141.508 232.613 139.269 227.239 139.269 224.166C139.511 219.161 141.544 214.409 144.998 210.777C148.785 206.868 153.087 203.491 157.784 200.74L164.1 196.647C165.122 195.846 166.358 195.363 167.652 195.258C168.528 195.425 169.417 195.508 170.308 195.505C171.683 195.273 172.501 193.852 172.995 192.555C174.217 189.435 174.785 186.097 174.663 182.749C174.681 182.533 174.653 182.315 174.581 182.11C174.51 181.905 174.395 181.718 174.246 181.56C174.025 181.444 173.778 181.383 173.528 181.383C173.278 181.383 173.031 181.444 172.81 181.56L152.951 187.737C150.012 188.912 146.84 189.388 143.685 189.127C140.597 188.617 137.508 186.177 137.508 183.042" fill="#E4EBF9"/>
<path d="M120.336 160.604C113.82 171.414 111.55 184.139 109.403 196.555C109.033 198.071 108.97 199.646 109.218 201.187C109.621 202.553 110.375 203.789 111.405 204.772C112.434 205.756 113.703 206.452 115.086 206.793C117.858 207.443 120.723 207.595 123.548 207.241C129.633 206.839 136.814 206.314 141.972 202.809C143.732 201.604 145.307 200.106 147.114 198.948C148.872 197.91 150.698 196.991 152.581 196.199C156.179 194.529 159.613 192.523 162.835 190.208C163.948 189.527 164.876 188.583 165.537 187.459C166.587 185.374 165.769 182.826 164.935 180.68C164.902 180.429 164.821 180.187 164.694 179.967C164.568 179.748 164.399 179.556 164.198 179.403C163.997 179.249 163.768 179.137 163.523 179.072C163.278 179.008 163.023 178.993 162.773 179.027C162.492 179.057 162.222 179.152 161.985 179.305C153.297 181.881 144.443 183.862 135.486 185.235C133.015 185.606 134.096 182.919 134.42 181.514C134.945 179.552 135.378 177.576 135.717 175.568C136.035 172.669 135.638 169.736 134.562 167.025C133.485 164.314 131.761 161.908 129.54 160.017C128.399 158.948 126.952 158.263 125.402 158.056C124.426 158.102 123.471 158.352 122.598 158.791C121.725 159.23 120.955 159.848 120.336 160.604Z" fill="white"/>
<path d="M156.858 136.081C156.838 133.95 156.71 131.821 156.472 129.703C156.271 127.85 155.978 125.982 155.607 124.159C155.593 123.617 155.46 123.084 155.217 122.598C154.974 122.112 154.628 121.686 154.202 121.349C151.346 119.586 148.045 118.68 144.689 118.739C142.702 118.466 140.686 118.978 139.069 120.165C137.452 121.353 136.36 123.123 136.026 125.101C135.964 125.5 135.933 125.903 135.933 126.306C135.424 130.939 136.644 135.572 137.323 140.282C137.845 143.86 138.036 147.478 137.894 151.091C139.647 152.263 141.664 152.98 143.763 153.176C144.745 153.173 145.72 153.011 146.65 152.697C147.17 152.587 147.628 152.283 147.932 151.848C148.076 151.464 148.113 151.048 148.04 150.644C147.981 150.265 147.945 149.884 147.932 149.501C147.78 147.37 147.821 145.231 148.056 143.108C148.057 142.931 148.123 142.761 148.241 142.629C148.387 142.583 148.543 142.583 148.689 142.629H149.276C150.333 142.737 151.399 142.737 152.457 142.629C153.729 142.505 154.911 141.916 155.777 140.977C156.739 139.538 157.125 137.791 156.858 136.081Z" fill="#FDB9A9"/>
<path d="M154.557 136.39C154.341 136.05 154.001 135.664 153.63 135.788C153.26 135.911 153.229 136.189 153.121 136.467C152.711 137.608 152.081 138.657 151.268 139.556C150.792 140.108 150.276 140.625 149.723 141.1L148.673 142.027C149.623 142.379 150.614 142.602 151.623 142.691C152.125 142.731 152.63 142.666 153.105 142.502C153.581 142.337 154.017 142.075 154.387 141.733C154.793 141.277 155.117 140.755 155.345 140.189C155.636 139.67 155.839 139.107 155.947 138.521C155.984 138.241 155.956 137.955 155.865 137.688C155.774 137.42 155.622 137.177 155.422 136.977" fill="#DE9F93"/>
<path d="M152.596 122.167C154.341 121.75 156.843 121.565 157.723 119.913C158.031 119.099 158.067 118.208 157.825 117.372C157.582 116.537 157.075 115.802 156.38 115.28C155.17 114.051 153.683 113.13 152.045 112.592C150.406 112.055 148.662 111.918 146.96 112.191C145.901 112.453 144.829 112.654 143.748 112.794C142.296 112.871 140.875 112.439 139.424 112.392C136.867 112.455 134.408 113.392 132.459 115.048C131.219 116.259 129.822 117.298 128.305 118.137C127.54 118.52 126.669 118.637 125.829 118.469C124.99 118.301 124.231 117.858 123.672 117.21C123.377 118.228 123.305 119.297 123.463 120.345C123.62 121.392 124.002 122.393 124.583 123.279C124.289 123.574 123.9 123.755 123.485 123.792C123.07 123.828 122.655 123.718 122.313 123.48C122.406 125.955 122.978 128.388 123.996 130.645C123.067 130.726 122.131 130.674 121.217 130.491C121.729 131.739 122.483 132.873 123.434 133.83C124.385 134.786 125.516 135.546 126.761 136.066C130.158 137.471 133.942 137.61 136.428 140.544C136.737 140.915 137.045 141.795 137.571 141.888C138.096 141.98 138.466 141.424 138.621 140.93C139.207 138.827 139.054 136.587 138.188 134.583C137.588 133.601 137.233 132.489 137.154 131.34C137.262 130.198 138.806 129.302 139.547 129.981C140.288 130.661 140.412 132.282 141.323 131.958C140.288 128.715 141.632 124.638 144.767 123.356C147.16 122.399 149.801 122.97 152.241 122.26L152.596 122.167Z" fill="#FE8A35"/>
<path d="M149.183 142.629C146.721 142.174 144.314 141.459 142.002 140.498C141.786 148.003 147.886 149.563 147.886 149.563C147.734 147.432 147.775 145.292 148.009 143.169C148.011 142.993 148.077 142.822 148.195 142.691C148.34 142.645 148.497 142.645 148.643 142.691H149.183V142.629Z" fill="#DE9F93"/>
<path d="M277.28 216.615C309.646 216.615 335.884 190.376 335.884 158.01C335.884 125.643 309.646 99.405 277.28 99.405C244.913 99.405 218.675 125.643 218.675 158.01C218.675 190.376 244.913 216.615 277.28 216.615Z" fill="white"/>
<path d="M453.341 360.663C444.076 363.752 435.134 368.091 435.381 372.508C435.659 377.45 397.701 378.33 393.98 377.82C394.675 376.276 394.088 373.697 394.736 372.168C380.826 368.894 367.141 364.726 353.767 359.691C336.147 353.127 315.16 352.201 296.629 350.425C255.258 346.41 212.915 347.167 172.687 358.61C163.934 360.923 155.466 364.202 147.438 368.385C145.096 369.417 143.116 371.128 141.755 373.296C139.5 377.681 142.45 382.993 146.141 386.252C151.839 391.302 159.252 393.973 166.587 396.043C190.615 402.928 215.706 405.325 240.603 403.115C251.413 402.158 262.455 400.32 273.203 402.158C283.951 403.996 293.695 409.354 304.212 412.134C314.728 414.913 327.376 414.481 334.726 406.544C336.564 404.567 338.062 402.158 340.425 400.861C343.374 399.224 347.003 399.687 350.37 400.15C381.831 404.514 413.728 404.743 445.249 400.83C447.828 400.505 450.67 400.011 452.276 397.957C453.465 396.413 453.712 394.282 455.009 392.83C456.739 390.869 459.642 390.761 462.313 390.777C477.872 390.852 493.418 389.867 508.842 387.827C512.919 387.287 517.135 386.623 520.563 384.337C523.991 382.051 526.369 377.681 525.072 373.774C524.055 371.382 522.345 369.349 520.161 367.937C506.696 357.683 489.045 353.683 472.289 355.845C465.857 356.953 459.522 358.564 453.341 360.663Z" fill="#E4EBF9"/>
<path d="M285.079 363.675C285.079 367.258 297.309 370.161 312.397 370.161C327.484 370.161 339.699 367.258 339.699 363.675C339.807 362.329 339.807 360.976 339.699 359.629C337.753 356.54 326.11 357.174 312.397 357.174C299.193 357.174 287.688 356.664 285.079 359.629C284.917 360.973 284.917 362.331 285.079 363.675Z" fill="#4E74FF"/>
<path d="M312.397 366.13C327.476 366.13 339.699 363.219 339.699 359.629C339.699 356.038 327.476 353.127 312.397 353.127C297.318 353.127 285.094 356.038 285.094 359.629C285.094 363.219 297.318 366.13 312.397 366.13Z" fill="#4E74FF"/>
<path d="M312.397 366.13C327.476 366.13 339.699 363.219 339.699 359.629C339.699 356.038 327.476 353.127 312.397 353.127C297.318 353.127 285.094 356.038 285.094 359.629C285.094 363.219 297.318 366.13 312.397 366.13Z" fill="url(#paint1_linear)"/>
<path d="M464.413 373.605C479.492 373.605 491.716 370.694 491.716 367.103C491.716 363.513 479.492 360.602 464.413 360.602C449.335 360.602 437.111 363.513 437.111 367.103C437.111 370.694 449.335 373.605 464.413 373.605Z" fill="#4C506D"/>
<path d="M315.532 298.646H309.2V360.077H315.532V298.646Z" fill="#4E74FF"/>
<path d="M315.532 298.646H309.2V319.864H315.532V298.646Z" fill="url(#paint2_linear)"/>
<path d="M391.293 356.556V365.914H357.813C357.813 365.914 359.775 358.733 373.04 356.556L377.379 353.019L391.293 356.556Z" fill="#4E74FF"/>
<path d="M391.293 356.556V365.914H357.813C357.813 365.914 359.775 358.733 373.04 356.556L377.379 353.019L391.293 356.556Z" fill="url(#paint3_linear)"/>
<path d="M392.822 365.899H356.732V368.292H392.822V365.899Z" fill="#4E74FF"/>
<path d="M467.054 313.147H461.804V361.637H467.054V313.147Z" fill="#37446F"/>
<path d="M437.157 367.057C437.157 370.64 449.388 373.558 464.46 373.558C479.532 373.558 491.778 370.64 491.778 367.057C491.87 365.71 491.87 364.358 491.778 363.011C489.832 359.922 478.188 360.555 464.46 360.555C451.272 360.555 439.752 360.046 437.157 363.011C436.987 364.354 436.987 365.714 437.157 367.057Z" fill="#1B2648"/>
<path d="M464.413 369.559C479.492 369.559 491.716 366.648 491.716 363.057C491.716 359.467 479.492 356.556 464.413 356.556C449.335 356.556 437.111 359.467 437.111 363.057C437.111 366.648 449.335 369.559 464.413 369.559Z" fill="#37446F"/>
<path d="M456.09 304.313H501.26L512.07 245.631C512.403 243.797 511.996 241.905 510.936 240.37C509.876 238.836 508.252 237.785 506.418 237.447C505.984 237.372 505.545 237.336 505.105 237.339H474.22C472.578 237.339 470.988 237.914 469.724 238.963C468.461 240.012 467.604 241.469 467.302 243.083L456.09 304.313Z" fill="#37446F"/>
<path d="M444.061 304.313H489.23L500.04 245.631C500.374 243.797 499.966 241.905 498.906 240.37C497.847 238.836 496.222 237.785 494.388 237.447C493.97 237.372 493.546 237.336 493.122 237.339H462.237C460.594 237.339 459.004 237.914 457.741 238.963C456.478 240.012 455.621 241.469 455.318 243.083L444.061 304.313Z" fill="#1B2648"/>
<path d="M492.704 295.465H460.151C455.264 295.465 451.303 299.426 451.303 304.313C451.303 309.2 455.264 313.162 460.151 313.162H492.704C497.591 313.162 501.553 309.2 501.553 304.313C501.553 299.426 497.591 295.465 492.704 295.465Z" fill="#37446F"/>
<path d="M472.815 295.465H440.262C435.375 295.465 431.414 299.426 431.414 304.313C431.414 309.2 435.375 313.162 440.262 313.162H472.815C477.702 313.162 481.664 309.2 481.664 304.313C481.664 299.426 477.702 295.465 472.815 295.465Z" fill="#1B2648"/>
<path d="M479.686 221.649C479.362 221.26 479.016 220.889 478.652 220.537C473.37 215.472 464.753 216.012 459.379 216.167C454.604 216.383 449.819 216.244 445.064 215.75L443.01 215.503H442.331C438.763 215.117 434.486 215.148 433.297 218.838C431.907 223.24 431.752 228.505 431.119 233.076C429.204 246.728 428.139 260.039 427.567 273.722C427.027 285.813 443.103 286.771 451.735 286.771C454.663 286.843 457.593 286.667 460.491 286.245C463.147 285.798 465.556 284.701 468.212 284.207C469.591 284.065 470.899 283.529 471.98 282.663C473.448 281.242 473.448 278.91 473.448 276.872C473.398 271.666 473.822 266.466 474.714 261.337C475.193 258.788 475.934 256.302 476.382 253.77C476.886 251.699 477.59 249.682 478.482 247.747C482.142 238.497 485.03 228.073 479.686 221.649Z" fill="white"/>
<path d="M414.781 222.884C415.092 221.713 415.615 220.608 416.325 219.626C417.993 217.541 420.958 217.093 423.614 216.893C424.865 216.785 426.363 216.893 426.965 217.958C427.242 218.567 427.323 219.247 427.197 219.904C426.816 222.17 426.62 224.463 426.61 226.76C428.358 225.65 430.256 224.797 432.247 224.228C432.772 224.058 438.1 223.456 438.177 224.228C438.47 227.533 438.594 230.853 438.594 234.158C438.706 235.359 438.576 236.571 438.213 237.722C437.85 238.873 437.26 239.94 436.478 240.86C433.662 244.805 430.516 248.504 427.074 251.917C423.378 255.595 418.389 257.679 413.175 257.723C412.366 257.85 411.539 257.776 410.765 257.507C409.992 257.237 409.298 256.781 408.743 256.179C408.251 255.283 408.031 254.263 408.11 253.245C408.123 250.327 408.36 247.416 408.82 244.535C410.169 237.157 412.164 229.913 414.781 222.884Z" fill="white"/>
<path d="M419.213 229.247C419.476 227.332 419.213 222.853 420.757 221.664L421.035 221.51C421.373 221.348 421.739 221.254 422.113 221.233C422.487 221.213 422.861 221.267 423.214 221.392C423.567 221.517 423.892 221.71 424.17 221.961C424.448 222.212 424.674 222.515 424.834 222.853C425.07 223.681 425.123 224.551 424.989 225.401C424.852 227.461 424.909 229.529 425.159 231.579C425.313 232.814 425.715 234.266 426.904 234.667C427.332 234.769 427.777 234.785 428.212 234.713C428.647 234.642 429.063 234.484 429.436 234.25C431.521 233.245 433.463 231.968 435.212 230.451C435.598 230.127 436.092 229.756 436.571 229.926C436.859 230.067 437.097 230.293 437.25 230.575L449.975 250.218C451.04 251.87 451.998 254.341 450.793 255.654C449.589 256.966 447.365 256.518 445.697 255.793C440.788 253.642 436.385 250.486 432.772 246.527C432.523 246.202 432.185 245.955 431.799 245.817C431.529 245.808 431.259 245.854 431.007 245.953C430.755 246.051 430.525 246.199 430.332 246.388C428.027 248.102 425.56 249.587 422.966 250.82C421.035 251.7 418.333 252.364 417.128 250.511C416.635 249.51 416.52 248.363 416.804 247.284L419.213 229.247Z" fill="#E4EBF9"/>
<path d="M466.051 234.25C466.964 231.891 468.469 229.806 470.421 228.197C471.408 227.396 472.606 226.899 473.871 226.767C475.135 226.636 476.41 226.875 477.54 227.455C480.536 229.278 480.783 233.463 480.397 236.953C479.861 241.907 478.773 246.786 477.154 251.5C476.351 253.832 475.054 256.132 474.344 258.433C473.772 260.333 473.695 262.371 473.108 264.363C471.632 269.303 470.832 274.42 470.73 279.574C470.763 280.25 470.647 280.925 470.39 281.551C470.249 281.858 470.005 282.106 469.701 282.253C469.397 282.399 469.051 282.435 468.723 282.354C468.336 282.17 468.013 281.874 467.796 281.505C464.553 277.32 458.886 275.945 453.635 275.328C447.458 274.571 441.281 274.432 435.027 274.061C432.479 273.907 429.328 273.15 428.927 270.664C428.867 269.943 429.01 269.219 429.341 268.575C429.671 267.931 430.175 267.392 430.795 267.02C432.056 266.297 433.447 265.83 434.888 265.645C440.416 264.61 446.207 263.746 450.809 260.518C449.14 260.027 447.6 259.173 446.3 258.016C449.265 259.962 454.021 253.615 456.152 251.994C458.037 250.49 459.611 248.633 460.785 246.527C462.916 242.775 464.26 238.296 466.051 234.25Z" fill="#E4EBF9"/>
<path d="M449.99 219.672C450.664 219.517 451.372 219.61 451.983 219.935C452.59 220.26 453.27 220.43 453.959 220.429C453.994 220.481 454.02 220.538 454.036 220.599C454.234 221.022 454.347 221.479 454.368 221.946C454.389 222.412 454.318 222.878 454.159 223.317C454 223.756 453.756 224.159 453.44 224.503C453.125 224.848 452.745 225.127 452.322 225.324C451.947 225.455 451.589 225.632 451.257 225.849C451.012 226.151 450.834 226.501 450.733 226.876C450.632 227.251 450.61 227.643 450.67 228.027C450.793 234.435 448.909 240.69 447.427 246.929C445.682 254.187 444.477 261.723 445.589 269.12C445.666 269.512 445.666 269.916 445.589 270.309C445.463 270.578 445.29 270.824 445.08 271.034L441.79 274.725C440.818 273.181 438.578 272.702 438.053 270.988C437.925 270.484 437.889 269.961 437.945 269.444C438.529 262.547 439.723 255.715 441.512 249.029C443.166 241.378 445.375 233.858 448.122 226.529C448.261 226.263 448.32 225.963 448.292 225.664C448.229 225.419 448.118 225.188 447.967 224.985C447.056 223.44 448.539 220.228 449.99 219.672Z" fill="#4E74FF"/>
<path d="M466.715 216.105C462.082 215.688 457.527 215.41 452.94 215.256C449.852 215.163 445.867 214.36 443.026 215.549C443.715 215.585 444.402 215.667 445.08 215.796C449.836 216.275 454.619 216.414 459.395 216.213C464.785 216.043 473.386 215.503 478.683 220.568C475.857 217.263 471.132 216.491 466.715 216.105Z" fill="white"/>
<path d="M462.731 202.269C462.94 202.453 463.201 202.567 463.478 202.595C463.755 202.623 464.034 202.562 464.275 202.423C463.626 205.928 463.086 209.002 464.723 212.445C465.324 213.926 466.475 215.116 467.935 215.765C464.88 216.398 461.91 217.388 459.086 218.715C457.262 219.519 455.289 219.934 453.295 219.935C453.095 219.935 449.574 219.147 450.099 218.391C452.894 214.283 450.655 207.473 450.655 207.473C452.991 208.159 455.5 207.941 457.683 206.862C459.865 205.783 461.563 203.923 462.437 201.651C462.471 201.882 462.573 202.097 462.731 202.269Z" fill="#8C6239"/>
<path d="M459.719 176.109C459.719 176.109 440.755 174.781 440.4 187.969C440.324 190.7 440.568 193.432 441.126 196.107C441.311 197.049 441.543 197.96 441.805 198.84C444.245 206.886 449.635 212.322 456.229 210.376C467.734 207.009 475.069 179.552 459.719 176.109Z" fill="#A67C52"/>
<path d="M465.14 198.454C465.849 197.796 466.304 196.909 466.425 195.949C466.547 194.99 466.327 194.018 465.804 193.204C465.637 192.939 465.416 192.713 465.155 192.54C464.827 192.372 464.461 192.293 464.093 192.309C463.725 192.325 463.367 192.437 463.055 192.632C462.545 192.91 461.866 193.945 461.233 193.296C461.083 193.11 460.979 192.892 460.928 192.659C460.877 192.426 460.881 192.184 460.939 191.953C461.096 190.671 461.634 189.466 462.483 188.494C461.985 188.33 461.531 188.054 461.157 187.687C460.782 187.32 460.496 186.873 460.322 186.378C458.57 186.74 456.776 186.85 454.994 186.702C454.567 186.696 454.147 186.601 453.758 186.424C452.847 185.976 452.477 184.88 451.658 184.247C450.512 183.692 449.219 183.519 447.967 183.753C446.701 183.753 445.141 183.289 444.956 182.039C443.827 182.512 442.557 182.52 441.423 182.059C440.289 181.599 439.383 180.709 438.903 179.583C438.315 179.804 437.684 179.882 437.061 179.809C436.437 179.737 435.841 179.516 435.32 179.166C434.984 178.714 434.761 178.188 434.67 177.632C434.578 177.076 434.621 176.506 434.795 175.97C435.243 173.607 436.339 171.074 438.594 170.225C437.281 169.53 437.297 167.677 437.497 166.21C437.515 165.783 437.631 165.365 437.837 164.99C438.455 163.986 439.875 164.017 440.926 163.616C441.976 163.214 442.825 162.38 443.86 161.886C444.894 161.392 446.377 161.438 446.871 162.457C448.226 161.655 449.728 161.13 451.288 160.913C452.067 160.818 452.858 160.948 453.567 161.287C454.275 161.626 454.872 162.161 455.287 162.828C456.056 162.395 456.909 162.132 457.789 162.056C458.23 162.029 458.668 162.144 459.04 162.382C459.412 162.621 459.699 162.972 459.858 163.384C459.853 163.483 459.873 163.581 459.916 163.67C459.959 163.76 460.024 163.836 460.105 163.894C460.188 163.939 460.281 163.964 460.376 163.964C460.47 163.964 460.563 163.939 460.646 163.894C461.863 163.427 463.193 163.341 464.46 163.646C465.086 163.814 465.649 164.163 466.078 164.649C466.506 165.135 466.782 165.738 466.869 166.38C468.372 166.813 469.756 167.585 470.915 168.634C471.54 169.08 472.02 169.7 472.294 170.417C472.569 171.134 472.626 171.916 472.459 172.665C473.458 173.687 474.039 175.044 474.09 176.472C474.142 177.9 473.659 179.295 472.737 180.386C473.022 180.52 473.254 180.744 473.4 181.023C473.545 181.302 473.594 181.621 473.54 181.931C473.421 182.552 473.163 183.138 472.784 183.645C472.659 183.805 472.583 183.998 472.568 184.201C472.568 184.448 472.846 184.633 473.031 184.803C473.486 185.289 473.731 185.935 473.71 186.601C473.69 187.267 473.407 187.897 472.923 188.355C472.744 188.534 472.535 188.681 472.305 188.787C472.715 189.097 473.053 189.492 473.296 189.945C473.539 190.399 473.68 190.899 473.71 191.412C473.71 191.665 473.654 191.914 473.547 192.143C473.439 192.371 473.282 192.573 473.088 192.734C472.893 192.895 472.665 193.011 472.42 193.073C472.175 193.136 471.92 193.143 471.672 193.096C471.891 193.67 471.959 194.291 471.87 194.899C471.781 195.507 471.537 196.083 471.162 196.57C470.22 197.775 469.216 197.373 468.074 197.898C466.931 198.423 466.406 200.122 465.618 200.987C465.541 200.122 465.356 199.288 465.14 198.454Z" fill="#37446F"/>
<path d="M425.066 276.764L399.061 290.091L377.441 352.633L390.49 360.664L416.078 308.745C416.078 308.745 439.953 301.472 446.408 299.356C452.863 297.241 460.893 277.165 460.893 277.165C431.722 276.964 425.066 276.764 425.066 276.764Z" fill="url(#paint4_linear)"/>
<path d="M445.682 278.879L419.692 292.206L401.516 365.235L415.414 368.771L436.694 310.83C436.694 310.83 460.553 303.557 467.008 301.441C473.463 299.325 471.95 281.026 471.95 281.026C460.785 273.382 445.682 278.879 445.682 278.879Z" fill="url(#paint5_linear)"/>
<path d="M471.903 219.054C467.842 218.082 457.82 239.362 457.82 239.362L441.651 223.116L432.015 226.745C432.015 226.745 446.469 262.263 458.484 258.896C470.498 255.53 481.818 230.081 481.818 230.081C483.346 225.71 475.98 220.027 471.903 219.054Z" fill="white"/>
<path d="M423.043 207.998C421.901 208.987 420.976 210.201 420.325 211.565C419.607 212.99 419.037 214.486 418.626 216.028C418.24 217.212 418.103 218.464 418.225 219.703C418.291 220.319 418.5 220.91 418.835 221.43C419.17 221.95 419.622 222.385 420.155 222.699C420.978 223.022 421.882 223.074 422.737 222.85C423.592 222.625 424.354 222.134 424.912 221.448C425.975 220.033 426.675 218.379 426.95 216.63C427.193 214.88 427.714 213.181 428.494 211.596C429.144 210.835 429.558 209.901 429.683 208.909C429.328 205.419 424.695 206.639 423.043 207.998Z" fill="#8C6239"/>
<path d="M438.887 220.815C439.628 224.552 435.536 226.05 432.401 225.324C431.457 225.141 430.568 224.739 429.807 224.151C428 222.715 427.428 220.244 426.239 218.267C425.405 216.877 424.247 215.719 423.429 214.329C422.964 213.66 422.677 212.884 422.596 212.073C422.515 211.262 422.642 210.444 422.966 209.696C423.985 207.843 426.471 207.457 428.602 207.457C429.693 207.349 430.794 207.503 431.814 207.905C432.891 208.503 433.779 209.391 434.378 210.469C436.463 213.633 437.988 217.133 438.887 220.815Z" fill="#A67C52"/>
<path d="M157.368 282.447C157.368 295.65 224.342 306.367 306.96 306.367C389.579 306.367 456.538 295.65 456.538 282.447C456.538 281.891 456.77 275.266 456.538 274.725C451.318 262.279 386.15 258.526 306.96 258.526C229.5 258.526 165.027 262.665 157.368 274.725C156.858 275.528 157.368 281.613 157.368 282.447Z" fill="#4E74FF"/>
<path d="M456.539 282.446C456.539 295.65 389.579 306.367 306.961 306.367C224.343 306.367 157.368 295.65 157.368 282.446C157.368 280.902 157.214 279.358 157.368 277.814C157.539 276.867 157.907 275.967 158.449 275.173C158.938 273.637 159.947 272.319 161.303 271.448C162.659 270.577 164.277 270.207 165.877 270.401C169.336 270.401 172.79 270.473 176.239 270.617C181.003 270.78 185.755 271.182 190.477 271.822C193.998 272.332 197.504 273.042 201.056 273.258C208.391 273.675 215.664 271.961 223 271.714C223.542 271.668 224.088 271.699 224.621 271.806C225.208 271.99 225.773 272.238 226.304 272.548C228.953 273.908 231.958 274.415 234.906 273.999C261.514 275.806 288.044 273.999 314.528 270.911C336.658 268.332 358.771 265.197 381.04 264.626C404.327 264.023 427.603 266.232 450.362 271.204C453.45 271.868 457.172 273.351 457.326 276.501C457.434 278.601 455.149 280.732 456.539 282.446Z" fill="url(#paint6_linear)"/>
<path d="M306.961 298.646C389.578 298.646 456.553 287.936 456.553 274.725C456.553 261.514 389.578 250.805 306.961 250.805C224.343 250.805 157.368 261.514 157.368 274.725C157.368 287.936 224.343 298.646 306.961 298.646Z" fill="url(#paint7_linear)"/>
<path d="M415.43 368.771V378.114H381.951C381.951 378.114 383.912 370.948 397.177 368.771L401.517 365.235L415.43 368.771Z" fill="#4E74FF"/>
<path d="M415.43 368.771V378.114H381.951C381.951 378.114 383.912 370.948 397.177 368.771L401.517 365.235L415.43 368.771Z" fill="url(#paint8_linear)"/>
<path d="M416.943 378.114H380.854V380.507H416.943V378.114Z" fill="#4E74FF"/>
<path d="M464.955 214.175C465.458 214.02 465.996 214.02 466.499 214.175C467.286 214.514 467.626 215.503 468.429 215.812C466.576 217.495 464.074 218.282 461.959 219.611C459.762 221.144 457.796 222.985 456.121 225.077C454.129 223.981 454.253 220.877 452.508 219.41C453.75 219.082 454.933 218.561 456.013 217.866C456.885 217.467 457.721 216.997 458.515 216.46C460.507 215.318 462.688 214.544 464.955 214.175Z" fill="white"/>
<path d="M447.844 215.348C447.211 215.907 446.641 216.533 446.145 217.217L444.169 219.734C444.07 219.833 443.992 219.951 443.942 220.081C443.891 220.212 443.869 220.351 443.875 220.491C443.934 220.652 444.05 220.786 444.201 220.868C444.351 220.95 444.526 220.975 444.694 220.939C445.021 220.843 445.341 220.725 445.651 220.583C446.383 220.442 447.131 220.4 447.875 220.46C448.791 220.367 449.687 220.133 450.531 219.765C450.584 219.757 450.635 219.737 450.68 219.708C450.725 219.679 450.764 219.64 450.793 219.595C450.824 219.5 450.824 219.397 450.793 219.302C450.749 218.419 450.886 217.536 451.195 216.707C451.411 216.09 451.828 215.379 451.411 214.746C450.654 213.526 448.631 214.715 447.844 215.348Z" fill="white"/>
<path d="M404.358 262.68L365.442 264.425L377.38 278.323L420.217 274.725L404.358 262.68Z" fill="white"/>
<path d="M242.58 262.68C244.757 262.896 280.847 273.335 280.847 273.335L259.968 289.411L218.675 278.323L242.58 262.68Z" fill="white"/>
<path d="M413.299 337.391H408.048V385.881H413.299V337.391Z" fill="#37446F"/>
<path d="M413.299 337.391H408.048V385.881H413.299V337.391Z" fill="url(#paint9_linear)"/>
<path d="M383.355 391.348C383.355 394.946 395.586 397.85 410.673 397.85C425.76 397.85 437.976 394.946 437.976 391.348C438.068 390.001 438.068 388.649 437.976 387.302C436.03 384.214 424.386 384.862 410.673 384.862C397.47 384.862 385.965 384.353 383.355 387.302C383.185 388.646 383.185 390.005 383.355 391.348Z" fill="#1B2648"/>
<path d="M410.673 393.804C425.752 393.804 437.976 390.893 437.976 387.302C437.976 383.712 425.752 380.801 410.673 380.801C395.594 380.801 383.371 383.712 383.371 387.302C383.371 390.893 395.594 393.804 410.673 393.804Z" fill="#37446F"/>
<path d="M386.305 238.343C368.654 234.25 359.79 212.847 342.556 207.241C342 207.025 341.383 207.025 340.826 207.241C340.358 207.551 340.005 208.007 339.823 208.538L335.885 217.186L359.527 244.597C361.293 246.792 363.28 248.8 365.457 250.589C370.523 254.449 377.055 255.715 383.325 256.858C387.046 257.553 390.922 258.217 394.551 257.167C399.292 255.793 404.744 249.245 403.184 243.933C401.485 238.111 391.169 239.47 386.305 238.343Z" fill="white"/>
<path d="M360.376 327.261C360.299 330.114 360.825 332.95 361.92 335.585H362.075C365.163 335.508 368.128 335.585 371.155 335.77C376.185 336.175 381.187 336.877 386.134 337.87C388.42 338.303 390.767 338.766 392.991 339.229C395.215 339.693 397.346 340.125 399.523 340.542C403.662 341.36 407.646 342.086 411.507 342.611C416.507 340.495 420.971 337.287 424.571 333.222C424.973 332.774 425.343 332.326 425.714 331.879C426.193 331.279 426.641 330.655 427.057 330.01C428.311 328.199 429.125 326.121 429.436 323.941C429.528 323.056 429.497 322.162 429.343 321.285C428.542 318.279 426.655 315.676 424.046 313.981L423.228 313.394C417.719 309.574 411.117 307.649 404.419 307.912C403.856 307.896 403.293 307.927 402.735 308.004C399.161 308.268 395.619 308.868 392.157 309.796C386.659 311.201 381.162 313.178 375.742 314.907C371.724 315.973 367.88 317.611 364.329 319.772C363.308 320.431 362.418 321.274 361.704 322.258C360.795 323.766 360.334 325.501 360.376 327.261Z" fill="#1B2648"/>
<path d="M360.856 336.002C361.566 339.631 362.184 343.306 362.74 346.966C364.031 355.514 364.891 364.121 365.318 372.755C365.427 373.56 365.348 374.379 365.087 375.149C364.176 377.419 361.072 377.527 358.632 377.511C356.192 377.496 352.995 378.484 353.057 380.924C353.057 382.824 355.157 383.935 356.949 384.553C362.322 386.395 367.979 387.268 373.658 387.132C374.352 387.164 375.046 387.054 375.696 386.808C379.541 385.109 376.499 380.631 376.097 378.036C375.511 374.253 376.978 370.083 377.889 366.47C380.035 358.054 385.718 350.44 385.471 341.484C385.288 340.346 385.5 339.179 386.073 338.179C387.139 336.866 391.633 338.982 393.053 339.275C395.231 339.723 397.408 340.171 399.586 340.588C411.276 342.873 422.086 345.483 434.115 343.244C434.828 343.163 435.513 342.926 436.123 342.549C436.845 341.916 437.352 341.074 437.575 340.14C439.266 334.859 438.817 329.125 436.324 324.172C433.39 318.381 428.741 316.096 423.29 313.363C417.02 310.181 411.724 307.788 404.481 307.989C403.918 307.973 403.355 308.004 402.798 308.081C399.212 308.374 395.661 308.994 392.189 309.934C383.356 312.22 363.018 315.432 359.636 325.67C358.57 328.898 359.914 331.492 360.562 334.627C360.655 335.029 360.747 335.507 360.856 336.002Z" fill="#1B2648"/>
<path d="M360.856 336.002C361.566 339.631 362.184 343.306 362.74 346.966C364.031 355.514 364.891 364.121 365.318 372.755C365.427 373.56 365.348 374.379 365.087 375.149C364.176 377.419 361.072 377.527 358.632 377.511C356.192 377.496 352.995 378.484 353.057 380.924C353.057 382.824 355.157 383.935 356.949 384.553C362.322 386.395 367.979 387.268 373.658 387.132C374.352 387.164 375.046 387.054 375.696 386.808C379.541 385.109 376.499 380.631 376.097 378.036C375.511 374.253 376.978 370.083 377.889 366.47C380.035 358.054 385.718 350.44 385.471 341.484C385.288 340.346 385.5 339.179 386.073 338.179C387.139 336.866 391.633 338.982 393.053 339.275C395.231 339.723 397.408 340.171 399.586 340.588C411.276 342.873 422.086 345.483 434.115 343.244C434.828 343.163 435.513 342.926 436.123 342.549C436.845 341.916 437.352 341.074 437.575 340.14C439.266 334.859 438.817 329.125 436.324 324.172C433.39 318.381 428.741 316.096 423.29 313.363C417.02 310.181 411.724 307.788 404.481 307.989C403.918 307.973 403.355 308.004 402.798 308.081C399.212 308.374 395.661 308.994 392.189 309.934C383.356 312.22 363.018 315.432 359.636 325.67C358.57 328.898 359.914 331.492 360.562 334.627C360.655 335.029 360.747 335.507 360.856 336.002Z" fill="#1B2648"/>
<path d="M344.208 336.959C341.338 340.451 339.049 344.383 337.429 348.603C335.313 353.328 323.16 403.98 322.728 403.872L331.916 406.297C342.508 391.138 351.342 374.823 358.246 357.668C360.238 352.742 360.346 352.278 365.704 351.228C370.414 350.317 375.124 349.313 379.788 348.14C388.905 346.007 397.85 343.199 406.55 339.739C411.82 337.688 416.866 335.101 421.607 332.018C422.281 331.48 422.888 330.863 423.414 330.18C423.658 329.875 423.875 329.55 424.062 329.207C424.897 327.868 425.296 326.304 425.205 324.729C425.187 324.309 425.114 323.894 424.989 323.493C424.652 322.589 424.189 321.736 423.614 320.961C422.724 319.758 421.593 318.754 420.294 318.011C417.028 315.65 413.177 314.229 409.16 313.903C406.458 313.749 403.771 314.289 401.099 314.15C398.705 314.011 397.053 312.699 394.922 312.375C393.303 312.185 391.663 312.332 390.104 312.807C386.532 314.01 383.087 315.562 379.819 317.44L360.531 327.076H360.392L356.531 329.006C352.486 331.045 347.853 333.068 344.641 336.341L344.208 336.959Z" fill="url(#paint10_linear)"/>
<path d="M309.154 401.448C307.465 401.562 305.831 402.092 304.398 402.992C303.697 403.458 303.168 404.14 302.89 404.934C302.611 405.728 302.598 406.591 302.853 407.393C303.438 408.476 304.375 409.326 305.51 409.802C312.221 413.079 319.68 414.522 327.129 413.987C328.184 414.05 329.23 413.768 330.11 413.184C330.866 412.415 331.358 411.425 331.515 410.358C332.192 408.424 332.336 406.344 331.932 404.335C330.697 400.274 326.187 401.154 322.975 400.984C318.364 400.721 313.738 400.876 309.154 401.448Z" fill="#1B2648"/>
<path d="M376.839 222.406C376.066 223.363 374.847 224.398 375.294 225.494C375.557 226.097 376.236 226.39 376.761 226.791C378.091 227.982 378.905 229.644 379.031 231.424C379.155 233.19 379.572 234.923 380.267 236.551C380.633 237.352 381.266 238.001 382.057 238.387C382.849 238.773 383.75 238.872 384.606 238.667C385.579 238.281 386.49 237.308 387.479 237.617C388.467 237.926 388.575 238.76 389.023 239.424C389.636 240.194 390.454 240.775 391.383 241.1C392.312 241.425 393.314 241.481 394.273 241.261C396.186 240.787 397.99 239.948 399.586 238.79C400.275 238.442 400.853 237.907 401.253 237.246C401.486 236.597 401.486 235.888 401.253 235.239C400.464 233.29 399.305 231.512 397.841 230.004C395.426 226.923 393.809 223.295 393.131 219.441C392.652 216.769 392.528 213.758 390.644 211.828C388.065 209.202 382.475 209.774 379.834 212.152C376.839 214.607 379.217 219.333 376.839 222.406Z" fill="url(#paint11_linear)"/>
<path d="M379.047 209.774C379.436 210.433 380.003 210.968 380.684 211.318C382.027 211.966 383.201 212.754 384.514 213.464C385.759 214.155 386.697 215.292 387.139 216.646C387.88 219.116 386.799 222.02 387.818 224.367C388.173 224.83 388.946 224.367 389.224 223.935C389.502 223.502 389.61 222.776 390.073 222.39C390.861 221.819 391.972 222.56 392.42 223.425C392.895 224.451 392.961 225.619 392.605 226.691C392.249 227.764 391.499 228.661 390.505 229.2C390.706 229.973 391.741 230.189 392.528 230.003C393.28 229.709 394.071 229.527 394.876 229.463C396.713 229.633 397.655 232.196 399.508 232.289C400.759 232.289 401.732 231.177 402.458 230.127L404.404 227.363C404.697 226.843 405.038 226.352 405.423 225.896C405.886 225.448 406.705 225.34 407.06 224.83C407.415 224.321 406.859 223.286 407.276 222.622C407.475 222.386 407.723 222.197 408.002 222.066C408.605 221.668 409.056 221.077 409.28 220.39C409.505 219.703 409.489 218.96 409.237 218.282C409.142 218.125 409.099 217.941 409.114 217.757C409.114 217.51 409.438 217.371 409.654 217.232C410.284 216.721 410.712 216.002 410.862 215.205C411.011 214.408 410.874 213.583 410.473 212.878C409.628 211.491 408.47 210.322 407.091 209.465C404.249 207.365 401.284 204.925 400.45 201.496C400.324 200.563 400.064 199.653 399.678 198.794C399.46 198.381 399.092 198.067 398.649 197.918C398.207 197.768 397.724 197.794 397.3 197.991C397.526 196.198 397.4 194.377 396.929 192.632C396.834 192.207 396.65 191.807 396.389 191.459C396.109 191.169 395.757 190.959 395.369 190.85C394.98 190.742 394.57 190.739 394.181 190.841C393.403 191.057 392.67 191.413 392.019 191.891C392.019 191.026 390.876 190.686 390.011 190.717C388.366 190.777 386.764 191.263 385.362 192.126C383.96 192.989 382.806 194.201 382.012 195.644C381.891 195.901 381.735 196.14 381.549 196.354C381.186 196.647 380.78 196.882 380.344 197.049C379.687 197.428 379.122 197.949 378.692 198.574C378.262 199.2 377.977 199.913 377.858 200.662C377.626 202.167 377.626 203.698 377.858 205.203C377.935 206.367 378.153 207.518 378.506 208.631C378.633 209.035 378.815 209.419 379.047 209.774Z" fill="#FE8A35"/>
<path d="M396.435 235.64C394.509 236.705 392.652 237.892 390.876 239.192C390.315 239.595 389.855 240.124 389.532 240.736C389.358 241.053 389.267 241.409 389.267 241.771C389.267 242.132 389.358 242.488 389.532 242.805C390.15 243.686 391.308 243.222 392.204 242.805C396.308 240.944 400.734 239.895 405.238 239.717C405.547 239.737 405.856 239.669 406.13 239.522C406.403 239.374 406.629 239.153 406.782 238.883C406.86 238.572 406.868 238.247 406.807 237.932C406.745 237.617 406.616 237.32 406.427 237.061C403.662 232.412 399.987 233.524 396.435 235.64Z" fill="white"/>
<path d="M388.576 293.488C385.487 287.079 383.943 280.439 381.735 273.752C376.654 277.721 376.144 284.979 371.542 289.828C370.873 290.586 370.092 291.237 369.226 291.759C366.137 293.519 361.721 292.747 358.324 292.515C356.591 292.388 354.955 291.668 353.691 290.477C352.904 289.458 352.471 288.212 352.455 286.925C352.177 282.524 354.679 278.493 357.088 274.818L373.751 249.291C374.333 248.15 375.176 247.162 376.212 246.408C377.247 245.654 378.447 245.155 379.712 244.952C390.246 241.82 400.956 239.313 411.786 237.447C413.407 237.09 415.074 236.986 416.728 237.138C421.36 237.817 424.449 242.188 426.719 246.234C438.919 267.375 447.567 291.388 446.208 315.726C446.179 317.045 445.972 318.354 445.59 319.617C444.781 321.506 443.473 323.14 441.806 324.342C436.371 328.636 429.205 330.242 422.287 330.303C411.94 330.396 398.305 327.215 390.583 319.849C386.228 315.648 390.583 313.116 392.683 309.039C395.293 303.742 390.923 298.229 388.576 293.488Z" fill="white"/>
<path d="M440.123 276.362C439.388 273.124 438.327 269.968 436.957 266.942C430.981 271.313 426.503 279.636 424.279 286.755C422.055 293.874 420.233 301.24 415.693 307.093L410.782 305.394L409.871 308.483C409.161 310.938 411.214 313.44 410.998 315.911C410.757 317.183 410.154 318.358 409.261 319.295C408.368 320.232 407.223 320.891 405.964 321.192C403.072 321.746 400.085 321.533 397.301 320.575C395.478 320.211 393.755 319.458 392.251 318.366C391.504 317.815 390.934 317.059 390.607 316.191C390.281 315.322 390.214 314.377 390.413 313.471C389.822 313.83 389.369 314.376 389.125 315.023C388.882 315.669 388.862 316.379 389.07 317.038C389.504 318.354 390.322 319.51 391.417 320.358C394.845 323.447 399.138 324.991 403.462 326.659C405.482 327.477 407.544 328.189 409.639 328.79C414.509 329.882 419.49 330.401 424.48 330.334C427.568 330.412 429.313 329.933 430.657 326.952C432.572 322.675 432.711 317.857 433.174 313.193C434.545 300.756 436.868 288.443 440.123 276.362Z" fill="url(#paint12_linear)"/>
<path d="M423.615 321.084C423.615 322.412 423.615 323.771 423.707 325.146C423.8 326.52 423.893 327.91 424.062 329.331C424.082 329.647 424.123 329.962 424.186 330.272C424.31 331.245 424.464 332.218 424.634 333.222C424.641 333.239 424.645 333.258 424.645 333.276C424.645 333.295 424.641 333.313 424.634 333.33L424.958 334.998C424.479 338.024 424.865 341.123 426.07 343.939C428.819 344.037 431.571 343.996 434.316 343.816C439.657 343.484 444.942 342.541 450.068 341.005C455.316 338.32 460.161 334.909 464.46 330.875C465.65 329.86 466.599 328.594 467.24 327.169C467.702 325.623 467.859 324.002 467.703 322.397C467.536 313.484 468.691 304.595 471.132 296.021C471.672 294.152 472.274 292.299 472.923 290.477C473.664 288.392 474.467 286.354 475.394 284.3C477.509 279.528 480.027 274.88 481.03 269.768C481.555 266.974 481.587 264.11 481.123 261.306C481.093 260.806 480.904 260.33 480.583 259.947C480.335 259.755 480.052 259.614 479.75 259.532C479.448 259.45 479.133 259.428 478.822 259.468C472.383 259.638 466.468 263.329 460.167 264.41C456.909 264.966 453.512 264.811 450.346 265.753C445.901 267.296 442.115 270.308 439.613 274.293C438.197 276.339 436.942 278.492 435.861 280.733C434.208 284.099 432.664 287.311 431.228 290.43C430.394 292.299 429.606 294.152 428.881 295.974C426.516 301.733 424.867 307.759 423.97 313.919V314.027C423.701 316.369 423.582 318.727 423.615 321.084Z" fill="#1B2648"/>
<path d="M423.615 321.084C423.615 322.412 423.615 323.771 423.707 325.146C423.8 326.52 423.893 327.91 424.062 329.331C424.082 329.647 424.123 329.962 424.186 330.272C424.31 331.245 424.464 332.218 424.634 333.222C424.641 333.239 424.645 333.258 424.645 333.276C424.645 333.295 424.641 333.313 424.634 333.33L424.958 334.998C424.479 338.024 424.865 341.123 426.07 343.939C428.819 344.037 431.571 343.996 434.316 343.816C439.657 343.484 444.942 342.541 450.068 341.005C455.316 338.32 460.161 334.909 464.46 330.875C465.65 329.86 466.599 328.594 467.24 327.169C467.702 325.623 467.859 324.002 467.703 322.397C467.536 313.484 468.691 304.595 471.132 296.021C471.672 294.152 472.274 292.299 472.923 290.477C473.664 288.392 474.467 286.354 475.394 284.3C477.509 279.528 480.027 274.88 481.03 269.768C481.555 266.974 481.587 264.11 481.123 261.306C481.093 260.806 480.904 260.33 480.583 259.947C480.335 259.755 480.052 259.614 479.75 259.532C479.448 259.45 479.133 259.428 478.822 259.468C472.383 259.638 466.468 263.329 460.167 264.41C456.909 264.966 453.512 264.811 450.346 265.753C445.901 267.296 442.115 270.308 439.613 274.293C438.197 276.339 436.942 278.492 435.861 280.733C434.208 284.099 432.664 287.311 431.228 290.43C430.394 292.299 429.606 294.152 428.881 295.974C426.516 301.733 424.867 307.759 423.97 313.919V314.027C423.701 316.369 423.582 318.727 423.615 321.084Z" fill="#1B2648"/>
<path d="M335.684 201.249C332.225 198.315 328.642 195.304 324.318 193.883C324.039 193.738 323.729 193.663 323.415 193.663C323.1 193.663 322.791 193.738 322.511 193.883C322.238 194.122 322.057 194.45 322.002 194.81C321.918 195.584 322.013 196.367 322.281 197.098C322.549 197.829 322.982 198.489 323.546 199.025C324.659 200.102 325.663 201.287 326.542 202.562C324.925 202.27 323.263 202.344 321.678 202.778C321.365 202.839 321.079 202.996 320.859 203.226C320.754 203.432 320.705 203.662 320.719 203.893C320.733 204.123 320.808 204.346 320.936 204.538C321.563 205.475 322.408 206.245 323.397 206.782C324.387 207.32 325.493 207.61 326.619 207.627C327.042 207.641 327.453 207.769 327.808 207.998C328.565 208.631 328.071 209.851 328.21 210.808C328.32 211.269 328.535 211.697 328.838 212.062C329.14 212.426 329.522 212.715 329.955 212.908C330.789 213.341 331.731 213.557 332.611 213.928C333.888 214.759 335.298 215.365 336.78 215.719C339.699 215.842 342.618 211.966 342.649 209.218C342.71 206.222 337.707 202.963 335.684 201.249Z" fill="url(#paint13_linear)"/>
<path d="M168.24 336.712H162.989V385.202H168.24V336.712Z" fill="#37446F"/>
<path d="M168.24 336.712H162.989V385.202H168.24V336.712Z" fill="url(#paint14_linear)"/>
<path d="M192.917 390.669C192.917 394.251 180.687 397.155 165.599 397.155C150.512 397.155 138.297 394.251 138.297 390.669C138.204 389.322 138.204 387.97 138.297 386.623C140.242 383.534 151.886 384.167 165.599 384.167C178.803 384.167 190.307 383.658 192.917 386.623C193.087 387.966 193.087 389.325 192.917 390.669Z" fill="#1B2648"/>
<path d="M165.598 393.124C180.677 393.124 192.901 390.213 192.901 386.623C192.901 383.032 180.677 380.121 165.598 380.121C150.52 380.121 138.296 383.032 138.296 386.623C138.296 390.213 150.52 393.124 165.598 393.124Z" fill="#37446F"/>
<path d="M215.895 326.566C215.973 329.419 215.447 332.255 214.351 334.89H214.197C211.108 334.89 208.159 334.89 205.132 335.075C200.097 335.481 195.09 336.183 190.137 337.175C187.852 337.608 185.504 338.071 183.296 338.534L176.748 339.862C172.61 340.665 168.625 341.407 164.765 341.916C159.772 339.787 155.311 336.58 151.7 332.527L150.558 331.184C150.094 330.597 149.646 329.979 149.229 329.33C147.965 327.524 147.145 325.445 146.836 323.261C146.735 322.376 146.767 321.481 146.929 320.605C147.729 317.595 149.616 314.987 152.225 313.285L153.044 312.699C158.552 308.878 165.154 306.954 171.853 307.217C172.416 307.201 172.979 307.232 173.536 307.309C177.116 307.573 180.662 308.173 184.13 309.101C189.612 310.506 195.11 312.482 200.53 314.212C204.546 315.29 208.388 316.933 211.942 319.092C212.966 319.741 213.857 320.58 214.567 321.563C215.476 323.07 215.937 324.806 215.895 326.566Z" fill="#1B2648"/>
<path d="M215.432 335.307C214.706 338.951 214.088 342.611 213.532 346.287C212.776 351.336 212.451 356.479 211.617 361.498C210.783 366.517 210.969 371.489 210.073 376.431C209.672 378.289 209.455 380.182 209.425 382.083C209.662 384.707 210.33 387.273 211.401 389.68C211.262 390.005 210.783 389.974 210.428 389.881C208.427 389.432 206.488 388.742 204.653 387.827C202.797 386.905 201.326 385.357 200.499 383.457C199.402 380.631 200.375 377.651 200.252 374.747C199.923 371.684 199.281 368.662 198.337 365.729C196.19 357.313 190.523 349.7 190.754 340.758C190.953 339.615 190.74 338.438 190.152 337.438C189.087 336.125 184.593 338.257 183.187 338.534L176.64 339.863C164.95 342.133 154.155 344.742 142.125 342.519C141.41 342.423 140.721 342.181 140.102 341.808C139.381 341.175 138.873 340.333 138.651 339.399C136.982 334.116 137.431 328.391 139.902 323.432C142.836 317.656 147.484 315.355 152.935 312.622C159.205 309.533 164.502 307.047 171.744 307.248C172.307 307.232 172.87 307.263 173.428 307.34C177.018 307.632 180.575 308.252 184.052 309.193C192.87 311.479 213.208 314.691 216.59 324.93C217.655 328.172 216.327 330.751 215.679 333.902C215.617 334.35 215.524 334.828 215.432 335.307Z" fill="url(#paint15_linear)"/>
<path d="M199.758 382.036C199.859 381.924 199.979 381.829 200.113 381.758C200.669 381.527 201.179 382.16 201.503 382.685C202.87 384.925 204.914 386.672 207.34 387.673C207.634 387.828 207.974 387.872 208.298 387.796C208.653 387.657 208.838 387.256 209.132 386.993C209.347 386.825 209.6 386.712 209.869 386.663C210.138 386.615 210.415 386.633 210.676 386.715C211.203 386.906 211.698 387.177 212.143 387.518C213.532 388.433 214.839 389.467 216.05 390.607C216.668 391.225 217.27 392.151 216.899 392.923C216.652 393.339 216.263 393.652 215.803 393.804C214.108 394.339 212.281 394.273 210.63 393.618C207.541 392.599 204.777 390.7 201.75 389.511C201.545 389.405 201.317 389.352 201.086 389.356C200.913 389.383 200.742 389.424 200.576 389.48C200.302 389.447 200.038 389.352 199.805 389.202C199.572 389.052 199.376 388.852 199.233 388.615C198.46 387.66 198.083 386.445 198.181 385.221C198.278 383.996 198.843 382.856 199.758 382.036Z" fill="#37446F"/>
<path d="M229.963 337.144C231.29 340.59 231.925 344.263 231.832 347.954C231.832 357.405 229.206 366.64 226.643 375.751C225.562 379.581 224.651 383.472 223.385 387.318C222.458 390.066 221.223 392.105 222.999 394.962C223.382 395.499 223.738 396.055 224.064 396.63C224.209 396.927 224.266 397.259 224.227 397.588C224.189 397.916 224.057 398.227 223.848 398.483C223.153 399.116 222.057 398.699 221.192 398.359C219.091 397.758 217.028 397.031 215.015 396.182C211.216 394.035 212.683 391.317 213.285 388.028C214.026 384.059 214.521 379.998 214.938 375.983C215.968 367.809 215.76 359.526 214.32 351.413C214.208 350.453 213.828 349.543 213.223 348.788C212.444 348.143 211.484 347.755 210.475 347.676C196.576 345.221 182.987 344.48 169.721 339.106C164.456 337.055 159.416 334.467 154.68 331.384C153.994 330.855 153.381 330.237 152.858 329.547C152.626 329.238 152.41 328.914 152.21 328.589C151.389 327.239 150.991 325.674 151.067 324.095C151.1 323.678 151.172 323.264 151.283 322.86C151.635 321.964 152.102 321.118 152.673 320.343C153.563 319.136 154.694 318.127 155.993 317.378C159.26 315.03 163.103 313.611 167.112 313.27C169.814 313.131 172.501 313.672 175.173 313.517C177.566 313.394 179.219 312.066 181.35 311.741C182.968 311.552 184.609 311.699 186.168 312.174C189.737 313.383 193.181 314.935 196.453 316.807L208.421 322.783C213.965 325.547 220.775 327.416 225.639 331.261C227.564 332.816 229.054 334.843 229.963 337.144Z" fill="url(#paint16_linear)"/>
<path d="M217.317 316.992C222.386 320.127 226.587 324.485 229.536 329.665C232.485 334.845 234.087 340.682 234.196 346.642C224.363 354.025 213.029 359.16 200.994 361.683C199.623 362.084 198.165 362.084 196.793 361.683C195.662 361.108 194.667 360.297 193.875 359.305C182.849 347.985 163.437 349.113 151.855 338.349C147.47 334.272 144.613 327.246 148.072 322.35C149.481 320.621 151.231 319.202 153.214 318.181C162.217 312.822 172.826 304.808 183.714 306.661C194.601 308.514 207.912 311.324 217.317 316.992Z" fill="#4E74FF"/>
<path d="M221.563 355.042C216.05 349.159 215.031 340.48 214.29 332.434C212.719 333.81 210.942 334.93 209.024 335.755L208.082 333.253C208.055 333.045 207.947 332.856 207.783 332.726C207.619 332.596 207.41 332.536 207.201 332.558C207.086 332.576 206.975 332.618 206.877 332.682C199.021 335.321 190.796 336.697 182.509 336.758C179.42 336.758 175.976 336.527 173.382 334.705C170.788 332.882 169.444 328.96 171.344 326.427C164.651 328.251 157.832 329.577 150.944 330.396C150.66 330.386 150.378 330.433 150.113 330.534C149.847 330.634 149.605 330.787 149.4 330.983C148.875 331.662 149.4 332.651 149.847 333.346C155.369 341.08 163.67 346.376 173.011 348.124C175.621 348.603 189.458 353.761 195.666 361.868C196.101 362.383 196.672 362.765 197.314 362.969C197.956 363.174 198.642 363.194 199.295 363.026L221.563 355.042Z" fill="#1B2648"/>
<path d="M138.142 332.851C136.057 332.851 133.632 333.191 132.567 334.967C132.263 335.526 132.104 336.153 132.104 336.789C132.104 337.426 132.263 338.052 132.567 338.612C133.197 339.725 134.158 340.615 135.316 341.16C136.787 341.825 138.348 342.273 139.949 342.488C146.573 343.738 153.198 344.989 159.839 346.163C163.19 346.75 166.572 347.321 169.938 347.846C172.625 348.263 175.096 349.576 177.829 350.101C180.563 350.626 184.192 350.997 186.477 349.051C187.19 348.435 187.73 347.644 188.045 346.756C188.359 345.868 188.436 344.913 188.269 343.986C188.174 343.337 187.883 342.733 187.435 342.256C187.078 341.931 186.671 341.665 186.23 341.468C181.355 339.318 176.221 337.813 170.957 336.99L160.148 334.813C156.872 333.917 153.531 333.282 150.156 332.913C146.156 332.759 142.203 332.743 138.142 332.851Z" fill="#1B2648"/>
<path d="M138.142 332.851C136.057 332.851 133.632 333.191 132.567 334.967C132.263 335.526 132.104 336.153 132.104 336.789C132.104 337.426 132.263 338.052 132.567 338.612C133.197 339.725 134.158 340.615 135.316 341.16C136.787 341.825 138.348 342.273 139.949 342.488C146.573 343.738 153.198 344.989 159.839 346.163C163.19 346.75 166.572 347.321 169.938 347.846C172.625 348.263 175.096 349.576 177.829 350.101C180.563 350.626 184.192 350.997 186.477 349.051C187.19 348.435 187.73 347.644 188.045 346.756C188.359 345.868 188.436 344.913 188.269 343.986C188.174 343.337 187.883 342.733 187.435 342.256C187.078 341.931 186.671 341.665 186.23 341.468C181.355 339.318 176.221 337.813 170.957 336.99L160.148 334.813C156.872 333.917 153.531 333.282 150.156 332.913C146.156 332.759 142.203 332.743 138.142 332.851Z" fill="#1B2648"/>
<path d="M196.499 211.333C195.746 210.767 194.913 210.314 194.028 209.99C191.388 209.001 187.697 208.94 185.597 211.071C183.496 213.202 183.589 216.012 183.126 218.699C182.429 222.551 180.808 226.176 178.4 229.262C176.933 230.763 175.773 232.536 174.987 234.482C174.772 235.139 174.772 235.848 174.987 236.505C175.389 237.17 175.973 237.706 176.671 238.049C178.261 239.206 180.059 240.045 181.968 240.52C182.596 240.696 183.257 240.716 183.895 240.579C184.533 240.441 185.127 240.151 185.627 239.732C185.969 239.325 186.41 239.013 186.908 238.826C187.406 238.64 187.944 238.585 188.469 238.667C189.554 238.993 190.673 239.19 191.804 239.254C192.676 239.118 193.49 238.736 194.152 238.154C194.814 237.571 195.296 236.811 195.542 235.964C196.038 234.277 196.313 232.533 196.36 230.776C196.885 226.143 198.661 221.695 198.939 217.032C199.052 215.953 198.887 214.863 198.46 213.865C198.033 212.868 197.358 211.996 196.499 211.333Z" fill="url(#paint17_linear)"/>
<path d="M169.861 236.211C169.672 236.471 169.542 236.768 169.481 237.083C169.42 237.398 169.428 237.722 169.506 238.034C169.658 238.305 169.884 238.529 170.156 238.679C170.429 238.829 170.739 238.9 171.05 238.883C175.559 239.078 179.987 240.154 184.084 242.049C184.979 242.466 186.137 242.913 186.755 242.049C186.929 241.729 187.021 241.37 187.021 241.006C187.021 240.642 186.929 240.284 186.755 239.964C186.43 239.379 185.969 238.881 185.412 238.512C183.639 237.202 181.782 236.01 179.852 234.945C176.285 232.845 172.61 231.733 169.861 236.211Z" fill="white"/>
<path d="M183.62 308.375C185.705 312.544 190.075 315.077 185.705 319.262C177.984 326.705 164.348 329.809 154.001 329.717C147.083 329.717 139.918 328.064 134.482 323.771C132.815 322.566 131.512 320.926 130.714 319.03C130.316 317.776 130.108 316.47 130.096 315.154C128.737 290.77 137.37 266.772 149.569 245.662C151.886 241.616 154.928 237.261 159.561 236.582C161.214 236.414 162.883 236.518 164.502 236.891C175.334 238.745 186.044 241.246 196.577 244.38C197.978 244.69 199.298 245.29 200.453 246.141C201.281 246.888 201.989 247.758 202.553 248.72L219.2 274.247C221.625 277.937 224.111 281.968 223.833 286.354C223.82 287.645 223.386 288.898 222.598 289.921C221.332 291.107 219.696 291.822 217.965 291.944C211.891 292.919 205.675 292.497 199.789 290.708C203.078 288.191 202.044 282.987 199.882 279.404C198.413 277.022 196.596 274.872 194.492 273.027C193.084 279.919 190.801 286.603 187.697 292.917C185.443 297.565 180.98 303.078 183.62 308.375Z" fill="white"/>
<path d="M199.572 212.09C200.078 210.542 200.132 208.881 199.727 207.303C199.045 204.987 197.858 202.851 196.252 201.049C193.164 197.327 189.133 194.068 184.361 193.327C171.451 191.212 156.441 204.384 151.53 215.271C148.442 222.112 147.515 229.695 145.786 237.014C144.056 244.334 141.261 251.793 135.501 256.596C133.153 258.557 130.297 260.101 128.891 262.773C127.177 266.062 128.181 270.262 130.436 273.197C132.52 275.868 135.176 276.934 137.863 278.679C140.271 280.424 142.191 282.758 143.438 285.458C146.403 291.187 147.561 297.812 151.16 303.155L156.441 300.237C160.981 298.029 165.149 295.127 168.795 291.635C172.27 287.975 174.617 282.864 173.752 277.891C173.243 274.88 171.621 272.162 170.664 269.259C167.699 260.101 174.185 256.441 179.821 251.005C181.741 249.111 183.182 246.787 184.025 244.225C184.868 241.663 185.089 238.937 184.67 236.273C184.139 234.831 184.108 233.253 184.581 231.791C185.054 230.33 186.005 229.069 187.28 228.212C189.689 225.293 187.79 221.525 190.631 218.823C192.839 216.738 196.206 216.491 198.275 214.19C198.85 213.589 199.292 212.874 199.572 212.09Z" fill="#37446F"/>
<path d="M136.149 275.683C136.858 272.447 137.893 269.29 139.238 266.263C145.276 270.556 149.693 278.941 151.916 285.998C154.14 293.056 155.962 300.499 160.502 306.352L165.413 304.653L166.324 307.742C167.035 310.182 164.981 312.683 165.197 315.154C165.438 316.426 166.042 317.601 166.935 318.538C167.828 319.475 168.973 320.134 170.231 320.435C173.123 320.99 176.11 320.777 178.895 319.818C180.701 319.465 182.409 318.722 183.898 317.64C184.644 317.085 185.215 316.327 185.541 315.456C185.867 314.585 185.934 313.638 185.736 312.73C186.33 313.089 186.785 313.638 187.029 314.288C187.273 314.938 187.291 315.651 187.079 316.312C186.644 317.628 185.827 318.784 184.732 319.632C181.319 322.721 177.011 324.265 172.687 325.933C170.666 326.746 168.604 327.453 166.51 328.049C161.639 329.133 156.659 329.651 151.669 329.593C148.581 329.593 146.836 329.191 145.492 326.196C143.577 321.918 143.438 317.1 142.975 312.452C141.646 300.038 139.364 287.746 136.149 275.683Z" fill="#1B2648"/>
<path d="M152.673 320.405C152.673 321.733 152.673 323.076 152.581 324.451C152.488 325.825 152.38 327.215 152.21 328.651C152.228 328.964 152.191 329.277 152.102 329.578C151.963 330.55 151.824 331.523 151.639 332.527V332.635C151.546 333.176 151.438 333.732 151.33 334.303C151.792 337.334 151.407 340.434 150.218 343.26C147.469 343.352 144.716 343.306 141.972 343.121C136.63 342.797 131.344 341.854 126.22 340.31C120.974 337.62 116.13 334.21 111.828 330.18C110.634 329.163 109.685 327.891 109.048 326.458C108.585 324.918 108.428 323.302 108.585 321.702C108.755 312.762 107.594 303.847 105.141 295.249C104.616 293.38 104.014 291.527 103.35 289.689C102.608 287.62 101.805 285.566 100.894 283.512C98.7786 278.74 96.2614 274.108 95.2422 268.981C94.7001 266.185 94.6531 263.315 95.1032 260.503C95.133 260.003 95.3225 259.527 95.6437 259.144C95.8912 258.952 96.1741 258.811 96.4762 258.729C96.7783 258.647 97.0936 258.625 97.4042 258.665C103.844 258.835 109.758 262.541 116.059 263.607C119.317 264.163 122.715 264.024 125.88 264.966C130.357 266.479 134.175 269.49 136.69 273.49C138.107 275.536 139.361 277.689 140.443 279.93C142.095 283.296 143.639 286.508 145.076 289.628C145.909 291.512 146.62 293.349 147.423 295.187C149.803 300.934 151.453 306.958 152.334 313.116V313.224C152.594 315.608 152.708 318.006 152.673 320.405Z" fill="#37446F"/>
<path d="M152.673 320.405C152.673 321.733 152.673 323.076 152.581 324.451C152.488 325.825 152.38 327.215 152.21 328.651C152.228 328.964 152.191 329.277 152.102 329.578C151.963 330.55 151.824 331.523 151.639 332.527V332.635C151.546 333.176 151.438 333.732 151.33 334.303C151.792 337.334 151.407 340.434 150.218 343.26C147.469 343.352 144.716 343.306 141.972 343.121C136.63 342.797 131.344 341.854 126.22 340.31C120.974 337.62 116.13 334.21 111.828 330.18C110.634 329.163 109.685 327.891 109.048 326.458C108.585 324.918 108.428 323.302 108.585 321.702C108.755 312.762 107.594 303.847 105.141 295.249C104.616 293.38 104.014 291.527 103.35 289.689C102.608 287.62 101.805 285.566 100.894 283.512C98.7786 278.74 96.2614 274.108 95.2422 268.981C94.7001 266.185 94.6531 263.315 95.1032 260.503C95.133 260.003 95.3225 259.527 95.6437 259.144C95.8912 258.952 96.1741 258.811 96.4762 258.729C96.7783 258.647 97.0936 258.625 97.4042 258.665C103.844 258.835 109.758 262.541 116.059 263.607C119.317 264.163 122.715 264.024 125.88 264.966C130.357 266.479 134.175 269.49 136.69 273.49C138.107 275.536 139.361 277.689 140.443 279.93C142.095 283.296 143.639 286.508 145.076 289.628C145.909 291.512 146.62 293.349 147.423 295.187C149.803 300.934 151.453 306.958 152.334 313.116V313.224C152.594 315.608 152.708 318.006 152.673 320.405Z" fill="url(#paint18_linear)"/>
<path d="M212.251 391.487C212.338 391.366 212.455 391.27 212.591 391.209C213.162 390.977 213.672 391.611 213.981 392.136C215.347 394.376 217.392 396.123 219.818 397.124C220.112 397.279 220.452 397.323 220.776 397.247C221.146 397.108 221.332 396.707 221.61 396.444C221.825 396.276 222.078 396.163 222.347 396.114C222.616 396.066 222.893 396.084 223.154 396.166C223.681 396.347 224.172 396.619 224.605 396.969C225.997 397.88 227.305 398.914 228.512 400.058C229.13 400.675 229.732 401.602 229.362 402.374C229.128 402.792 228.74 403.103 228.281 403.239C226.583 403.783 224.75 403.723 223.092 403.069C220.004 402.05 217.255 400.15 214.228 398.961C214.016 398.859 213.784 398.806 213.548 398.807C213.38 398.833 213.215 398.875 213.054 398.93C212.779 398.898 212.516 398.803 212.283 398.653C212.05 398.503 211.854 398.302 211.711 398.066C210.939 397.109 210.565 395.893 210.666 394.668C210.767 393.444 211.334 392.305 212.251 391.487Z" fill="#37446F"/>
<path d="M257.977 197.697L248.603 199.72V158.149L257.977 156.141V197.697Z" fill="#4E74FF"/>
<path d="M270.47 194.995L261.081 197.018V165.546L270.47 163.538V194.995Z" fill="#4E74FF"/>
<path d="M282.978 192.308L273.604 194.331V137.255L282.978 135.232V192.308Z" fill="#4E74FF"/>
<path d="M295.472 189.605L286.098 191.628V122.183L295.472 120.16V189.605Z" fill="#4E74FF"/>
<path d="M242.426 200.94L301.988 188.972V120.283" stroke="#B4C4E4" stroke-width="1.54426" stroke-miterlimit="10"/>
<path d="M155.206 145.671C155.62 145.809 156.023 145.98 156.41 146.181L160.147 148.235C160.323 148.343 160.517 148.422 160.719 148.466C160.932 148.512 161.153 148.512 161.367 148.466C166.649 147.37 166.695 140.452 162.402 138.058C161.586 137.688 160.814 137.227 160.101 136.684C159.546 136.073 159.03 135.429 158.557 134.753C158.291 134.43 157.942 134.185 157.547 134.046C157.152 133.907 156.727 133.879 156.317 133.966C155.973 134.132 155.674 134.379 155.446 134.685C155.217 134.992 155.066 135.349 155.005 135.726C154.898 136.48 154.711 137.22 154.449 137.935C154.207 138.372 153.917 138.781 153.584 139.155C153.101 139.764 152.658 140.404 152.256 141.069C151.794 141.691 151.574 142.46 151.638 143.231C151.759 143.661 151.984 144.054 152.294 144.375C152.604 144.696 152.989 144.934 153.414 145.069C153.955 145.301 154.557 145.455 155.206 145.671Z" fill="#FDB9A9"/>
<path d="M189.072 173.591C189.763 174.802 190.219 176.133 190.415 177.514C190.406 178.862 190.086 180.19 189.481 181.395C188.875 182.601 188.001 183.65 186.925 184.463C183.997 187.011 180.3 188.506 176.424 188.71C175.435 188.808 174.438 188.659 173.521 188.277C172.257 187.474 171.296 186.273 170.787 184.864C166 175.012 160.765 162.828 160.286 151.725C160.132 148.281 163.143 142.212 167.189 144.497C171.637 147.015 175.76 153.192 178.818 157.191C182.76 162.312 186.194 167.805 189.072 173.591Z" fill="white"/>
</g>
<defs>
<linearGradient id="paint0_linear" x1="156.889" y1="256.486" x2="118.229" y2="260.282" gradientUnits="userSpaceOnUse">
<stop stop-color="#36446E"/>
<stop offset="1" stop-color="#6474A3"/>
</linearGradient>
<linearGradient id="paint1_linear" x1="39637.7" y1="-1324.49" x2="39554.2" y2="-662.932" gradientUnits="userSpaceOnUse">
<stop offset="0.01"/>
<stop offset="0.08" stop-opacity="0.69"/>
<stop offset="0.21" stop-opacity="0.32"/>
<stop offset="1" stop-opacity="0"/>
</linearGradient>
<linearGradient id="paint2_linear" x1="3604.23" y1="-2835.23" x2="3062.25" y2="-2614.81" gradientUnits="userSpaceOnUse">
<stop offset="0.01"/>
<stop offset="0.08" stop-opacity="0.69"/>
<stop offset="0.21" stop-opacity="0.32"/>
<stop offset="1" stop-opacity="0"/>
</linearGradient>
<linearGradient id="paint3_linear" x1="25215.9" y1="-1121.11" x2="24404.6" y2="-579.867" gradientUnits="userSpaceOnUse">
<stop offset="0.01"/>
<stop offset="0.08" stop-opacity="0.69"/>
<stop offset="0.21" stop-opacity="0.32"/>
<stop offset="1" stop-opacity="0"/>
</linearGradient>
<linearGradient id="paint4_linear" x1="460.893" y1="295.128" x2="366.121" y2="328.861" gradientUnits="userSpaceOnUse">
<stop stop-color="#36446E"/>
<stop offset="1" stop-color="#6474A3"/>
</linearGradient>
<linearGradient id="paint5_linear" x1="472.104" y1="297.06" x2="388.141" y2="320.163" gradientUnits="userSpaceOnUse">
<stop stop-color="#36446E"/>
<stop offset="1" stop-color="#6474A3"/>
</linearGradient>
<linearGradient id="paint6_linear" x1="219705" y1="-10266.6" x2="219664" y2="-1179.38" gradientUnits="userSpaceOnUse">
<stop offset="0.01"/>
<stop offset="0.08" stop-opacity="0.69"/>
<stop offset="0.21" stop-opacity="0.32"/>
<stop offset="1" stop-opacity="0"/>
</linearGradient>
<linearGradient id="paint7_linear" x1="318.851" y1="297.769" x2="318.828" y2="249.864" gradientUnits="userSpaceOnUse">
<stop stop-color="#4E74FF"/>
<stop offset="1" stop-color="#59C3FF"/>
</linearGradient>
<linearGradient id="paint8_linear" x1="25714.7" y1="-1030.1" x2="24904.4" y2="-488.284" gradientUnits="userSpaceOnUse">
<stop offset="0.01"/>
<stop offset="0.08" stop-opacity="0.69"/>
<stop offset="0.21" stop-opacity="0.32"/>
<stop offset="1" stop-opacity="0"/>
</linearGradient>
<linearGradient id="paint9_linear" x1="412.959" y1="385.156" x2="409.484" y2="349.499" gradientUnits="userSpaceOnUse">
<stop stop-opacity="0"/>
<stop offset="0.99"/>
</linearGradient>
<linearGradient id="paint10_linear" x1="425.218" y1="332.869" x2="311.404" y2="377.276" gradientUnits="userSpaceOnUse">
<stop stop-color="#36446E"/>
<stop offset="1" stop-color="#6474A3"/>
</linearGradient>
<linearGradient id="paint11_linear" x1="375.202" y1="225.741" x2="401.423" y2="225.741" gradientUnits="userSpaceOnUse">
<stop stop-color="#E5C5D5"/>
<stop offset="0.42" stop-color="#EAD4D1"/>
<stop offset="1" stop-color="#F0E9CB"/>
</linearGradient>
<linearGradient id="paint12_linear" x1="42450" y1="-5178.44" x2="37119.9" y2="-9482.54" gradientUnits="userSpaceOnUse">
<stop offset="0.01"/>
<stop offset="0.08" stop-opacity="0.69"/>
<stop offset="0.21" stop-opacity="0.32"/>
<stop offset="1" stop-opacity="0"/>
</linearGradient>
<linearGradient id="paint13_linear" x1="5114.48" y1="-4010.83" x2="5427.24" y2="-4010.83" gradientUnits="userSpaceOnUse">
<stop stop-color="#E5C5D5"/>
<stop offset="0.42" stop-color="#EAD4D1"/>
<stop offset="1" stop-color="#F0E9CB"/>
</linearGradient>
<linearGradient id="paint14_linear" x1="3389.94" y1="-3596.96" x2="3951.95" y2="-4221.46" gradientUnits="userSpaceOnUse">
<stop stop-opacity="0"/>
<stop offset="0.99"/>
</linearGradient>
<linearGradient id="paint15_linear" x1="73304.5" y1="-12470.5" x2="70716.9" y2="-5181.1" gradientUnits="userSpaceOnUse">
<stop stop-color="#E5C5D5"/>
<stop offset="1" stop-color="#EAD4D1"/>
</linearGradient>
<linearGradient id="paint16_linear" x1="11033.4" y1="-9555.65" x2="14722.4" y2="-5679.14" gradientUnits="userSpaceOnUse">
<stop stop-color="#EAD4D1"/>
<stop offset="1" stop-color="#E5C5D5"/>
</linearGradient>
<linearGradient id="paint17_linear" x1="52687" y1="-5166.34" x2="52310.1" y2="-5166.34" gradientUnits="userSpaceOnUse">
<stop stop-color="#E5C5D5"/>
<stop offset="1" stop-color="#EAD4D1"/>
</linearGradient>
<linearGradient id="paint18_linear" x1="19792.7" y1="-10950.7" x2="21962.7" y2="-10950.7" gradientUnits="userSpaceOnUse">
<stop stop-opacity="0"/>
<stop offset="0.99"/>
</linearGradient>
<clipPath id="clip0">
<rect width="597.059" height="450" fill="white" transform="translate(0.470703)"/>
</clipPath>
</defs>
</svg>
